<svg width="1347" height="1347" viewBox="0 0 1347 1347" fill="none" xmlns="http://www.w3.org/2000/svg">
<rect x="1" y="1" width="1345" height="1345" fill="#EDC287" stroke="black"/>
<ellipse cx="674" cy="821.5" rx="500" ry="200.5" fill="#D9D9D9"/>
<ellipse cx="674.001" cy="792.797" rx="466.102" ry="171.61" fill="#EDC287"/>
<path d="M875.715 350C1086.6 553.211 662.209 604.014 917.463 773.729" stroke="#D9D9D9" stroke-width="40" stroke-linecap="round"/>
<path d="M451.987 350C662.87 553.211 238.481 604.014 493.734 773.729" stroke="#D9D9D9" stroke-width="40" stroke-linecap="round"/>
<path d="M663.851 350C874.734 553.211 450.345 604.014 705.599 773.729" stroke="#D9D9D9" stroke-width="40" stroke-linecap="round"/>
<path d="M693 1346V849C693 1241.46 562.333 1343.86 497 1346H693Z" fill="#FFFBF2"/>
<path d="M510.5 1346C627.5 1300.5 655 1178 677 1058.5C617.548 1145.54 578.89 1178.28 491 1179.5C544.436 1236.54 560.706 1270.91 510.5 1346Z" fill="#907249"/>
</svg>
