<?xml version="1.0" standalone="no"?>
<!DOCTYPE svg PUBLIC "-//W3C//DTD SVG 20010904//EN"
 "http://www.w3.org/TR/2001/REC-SVG-20010904/DTD/svg10.dtd">
<svg version="1.0" xmlns="http://www.w3.org/2000/svg"
 width="1128.000000pt" height="1128.000000pt" viewBox="0 0 1128.000000 1128.000000"
 preserveAspectRatio="xMidYMid meet">
<metadata>
Created by potrace 1.14, written by Peter Selinger 2001-2017
</metadata>
<g transform="translate(0.000000,1128.000000) scale(0.100000,-0.100000)"
fill="#000000" stroke="none">
<path d="M5935 8640 c-3 -5 -1 -10 4 -10 6 0 11 5 11 10 0 6 -2 10 -4 10 -3 0
-8 -4 -11 -10z"/>
<path d="M8373 8625 c0 -8 4 -12 9 -9 5 3 6 10 3 15 -9 13 -12 11 -12 -6z"/>
<path d="M3494 8616 c1 -8 5 -18 8 -22 4 -3 5 1 4 10 -1 8 -5 18 -8 22 -4 3
-5 -1 -4 -10z"/>
<path d="M6020 8620 c-12 -7 -10 -9 7 -7 12 0 19 5 17 9 -6 10 -6 10 -24 -2z"/>
<path d="M8275 8619 c-3 -4 2 -6 10 -5 21 3 28 13 10 13 -9 0 -18 -4 -20 -8z"/>
<path d="M8414 8616 c1 -8 5 -18 8 -22 4 -3 5 1 4 10 -1 8 -5 18 -8 22 -4 3
-5 -1 -4 -10z"/>
<path d="M3430 8599 c0 -5 5 -7 10 -4 6 3 10 8 10 11 0 2 -4 4 -10 4 -5 0 -10
-5 -10 -11z"/>
<path d="M6095 8580 c-3 -5 -1 -10 4 -10 6 0 11 5 11 10 0 6 -2 10 -4 10 -3 0
-8 -4 -11 -10z"/>
<path d="M8290 8580 c0 -5 5 -10 11 -10 5 0 7 5 4 10 -3 6 -8 10 -11 10 -2 0
-4 -4 -4 -10z"/>
<path d="M3455 8540 c-3 -5 -1 -10 4 -10 6 0 11 5 11 10 0 6 -2 10 -4 10 -3 0
-8 -4 -11 -10z"/>
<path d="M8310 8536 c0 -2 8 -10 18 -17 15 -13 16 -12 3 4 -13 16 -21 21 -21
13z"/>
<path d="M3537 8493 c-10 -9 -9 -23 1 -23 5 0 9 7 9 15 0 17 -1 18 -10 8z"/>
<path d="M6115 8490 c-4 -6 -10 -8 -15 -5 -4 3 -14 -3 -21 -13 -12 -15 -12
-16 2 -5 9 7 18 11 21 8 3 -3 11 1 18 10 7 8 10 15 7 15 -3 0 -9 -5 -12 -10z"/>
<path d="M5995 8480 c-3 -5 -1 -10 4 -10 6 0 11 5 11 10 0 6 -2 10 -4 10 -3 0
-8 -4 -11 -10z"/>
<path d="M8404 8442 c23 -26 23 -26 23 -7 0 8 -3 13 -5 10 -3 -3 -12 1 -21 7
-10 8 -9 4 3 -10z"/>
<path d="M3473 8433 c0 -11 7 -20 14 -20 10 0 10 4 1 16 -7 9 -13 18 -15 20
-1 2 -1 -5 0 -16z"/>
<path d="M3566 8438 c3 -5 10 -6 15 -3 13 9 11 12 -6 12 -8 0 -12 -4 -9 -9z"/>
<path d="M6064 8438 c-4 -7 -2 -8 5 -4 6 4 18 3 25 -3 9 -8 13 -7 13 2 0 16
-34 20 -43 5z"/>
<path d="M6139 8433 c-13 -16 -12 -17 4 -4 9 7 17 15 17 17 0 8 -8 3 -21 -13z"/>
<path d="M8305 8440 c-3 -6 1 -7 9 -4 18 7 21 14 7 14 -6 0 -13 -4 -16 -10z"/>
<path d="M8339 8433 c-13 -16 -12 -17 4 -4 9 7 17 15 17 17 0 8 -8 3 -21 -13z"/>
<path d="M8459 8433 c-13 -16 -12 -17 4 -4 9 7 17 15 17 17 0 8 -8 3 -21 -13z"/>
<path d="M3520 8420 c-9 -6 -10 -10 -3 -10 6 0 15 5 18 10 8 12 4 12 -15 0z"/>
<path d="M8388 8419 c6 -9 8 -20 4 -25 -4 -5 -3 -6 2 -2 5 4 14 3 21 -2 8 -7
12 -5 12 5 0 8 -3 13 -5 10 -3 -3 -15 3 -26 12 -15 14 -18 14 -8 2z"/>
<path d="M3575 8410 c-4 -6 -12 -7 -18 -4 -7 4 -9 4 -5 -1 4 -4 2 -15 -4 -24
-10 -12 -7 -12 8 2 11 9 23 15 26 12 2 -3 5 2 5 10 0 18 -3 19 -12 5z"/>
<path d="M5994 8405 c1 -8 8 -21 16 -28 12 -10 12 -9 2 4 -6 9 -9 18 -6 21 3
3 1 9 -4 12 -6 3 -9 -1 -8 -9z"/>
<path d="M8354 8409 c-3 -6 2 -18 12 -27 17 -16 17 -16 5 0 -7 9 -10 22 -6 28
3 5 4 10 1 10 -3 0 -8 -5 -12 -11z"/>
<path d="M6096 8393 c-6 -14 -5 -15 5 -6 7 7 10 15 7 18 -3 3 -9 -2 -12 -12z"/>
<path d="M6144 8402 c4 -3 14 -7 22 -8 9 -1 13 0 10 4 -4 3 -14 7 -22 8 -9 1
-13 0 -10 -4z"/>
<path d="M8476 8401 c-3 -5 2 -15 12 -22 15 -12 16 -12 5 2 -7 9 -10 19 -6 22
3 4 4 7 0 7 -3 0 -8 -4 -11 -9z"/>
<path d="M3507 8379 c7 -7 15 -10 18 -7 3 3 -2 9 -12 12 -14 6 -15 5 -6 -5z"/>
<path d="M3626 8378 c3 -5 10 -6 15 -3 13 9 11 12 -6 12 -8 0 -12 -4 -9 -9z"/>
<path d="M6039 8373 c-13 -16 -12 -17 4 -4 9 7 17 15 17 17 0 8 -8 3 -21 -13z"/>
<path d="M3569 8368 c-8 -7 -12 -12 -10 -11 2 2 9 -1 15 -7 8 -6 12 -3 12 11
0 10 -1 19 -1 19 -1 0 -8 -6 -16 -12z"/>
<path d="M6115 8370 c-4 -6 -12 -7 -18 -4 -7 4 -8 3 -4 -1 13 -15 34 -14 34 1
0 17 -4 18 -12 4z"/>
<path d="M6140 8376 c0 -2 7 -7 16 -10 8 -3 12 -2 9 4 -6 10 -25 14 -25 6z"/>
<path d="M8333 8363 c1 -15 5 -19 13 -13 6 6 15 6 19 2 5 -4 5 -1 1 6 -4 7
-11 10 -16 7 -4 -3 -10 1 -13 7 -3 7 -4 3 -4 -9z"/>
<path d="M8453 8365 c0 -7 6 -11 14 -8 7 3 13 6 13 8 0 2 -6 5 -13 8 -8 3 -14
-1 -14 -8z"/>
<path d="M3486 8357 c3 -10 9 -15 12 -12 3 3 0 11 -7 18 -10 9 -11 8 -5 -6z"/>
<path d="M6074 8341 c0 -17 4 -31 9 -31 4 0 5 12 3 26 -7 38 -14 40 -12 5z"/>
<path d="M8465 8340 c-3 -6 1 -7 9 -4 18 7 21 14 7 14 -6 0 -13 -4 -16 -10z"/>
<path d="M8496 8333 c-6 -14 -5 -15 5 -6 7 7 10 15 7 18 -3 3 -9 -2 -12 -12z"/>
<path d="M3460 8320 c0 -5 5 -10 11 -10 5 0 7 5 4 10 -3 6 -8 10 -11 10 -2 0
-4 -4 -4 -10z"/>
<path d="M3634 8319 c-4 -7 -3 -9 4 -5 5 3 13 0 15 -6 4 -9 6 -10 6 -1 1 17
-16 25 -25 12z"/>
<path d="M6160 8320 c-9 -6 -10 -10 -3 -10 6 0 15 5 18 10 8 12 4 12 -15 0z"/>
<path d="M8315 8320 c3 -5 8 -10 11 -10 2 0 4 5 4 10 0 6 -5 10 -11 10 -5 0
-7 -4 -4 -10z"/>
<path d="M8410 8318 c0 -6 3 -8 7 -5 3 4 11 2 18 -3 8 -7 12 -6 12 3 0 7 -9
14 -19 14 -10 1 -18 -3 -18 -9z"/>
<path d="M6186 8296 c6 -15 4 -17 -6 -11 -9 6 -11 4 -5 -4 5 -9 10 -10 18 -2
8 8 7 14 -2 24 -10 10 -11 8 -5 -7z"/>
<path d="M3577 8288 c2 -5 13 -8 23 -8 10 0 21 3 23 8 3 4 -8 7 -23 7 -15 0
-26 -3 -23 -7z"/>
<path d="M8388 8293 c7 -3 16 -2 19 1 4 3 -2 6 -13 5 -11 0 -14 -3 -6 -6z"/>
<path d="M3546 8276 c6 -15 4 -17 -6 -11 -9 6 -11 4 -5 -4 5 -9 10 -10 18 -2
8 8 7 14 -2 24 -10 10 -11 8 -5 -7z"/>
<path d="M3640 8275 c-7 -9 -8 -15 -2 -15 5 0 12 7 16 15 3 8 4 15 2 15 -2 0
-9 -7 -16 -15z"/>
<path d="M6045 8280 c-3 -5 -1 -10 4 -10 6 0 11 5 11 10 0 6 -2 10 -4 10 -3 0
-8 -4 -11 -10z"/>
<path d="M6100 8280 c0 -5 7 -7 15 -4 8 4 15 8 15 10 0 2 -7 4 -15 4 -8 0 -15
-4 -15 -10z"/>
<path d="M8477 8273 c3 -7 6 -13 8 -13 2 0 5 6 8 13 3 8 -1 14 -8 14 -7 0 -11
-6 -8 -14z"/>
<path d="M3473 8265 c0 -8 4 -12 9 -9 5 3 6 10 3 15 -9 13 -12 11 -12 -6z"/>
<path d="M6156 8267 c3 -10 9 -15 12 -12 3 3 0 11 -7 18 -10 9 -11 8 -5 -6z"/>
<path d="M8390 8269 c-12 -8 -10 -9 9 -4 17 5 22 4 16 -5 -5 -9 -4 -11 4 -6 6
4 9 12 6 17 -8 12 -16 11 -35 -2z"/>
<path d="M6014 8258 c-4 -7 -4 -10 1 -6 4 4 14 0 22 -10 13 -15 13 -15 3 6
-12 25 -16 27 -26 10z"/>
<path d="M6125 8260 c-4 -6 -1 -18 7 -27 11 -15 11 -16 -4 -10 -10 3 -18 2
-18 -3 0 -13 27 -13 35 -1 3 5 1 12 -5 16 -5 3 -10 11 -10 16 0 6 5 7 12 3 7
-4 8 -3 4 4 -9 15 -13 15 -21 2z"/>
<path d="M8350 8259 c0 -5 5 -7 10 -4 6 3 10 8 10 11 0 2 -4 4 -10 4 -5 0 -10
-5 -10 -11z"/>
<path d="M6181 8242 c-1 -15 -5 -21 -13 -16 -7 5 -8 3 -3 -5 10 -18 28 2 22
25 -4 15 -5 14 -6 -4z"/>
<path d="M8435 8250 c-3 -5 -2 -18 4 -27 7 -14 9 -12 8 10 -2 30 -3 31 -12 17z"/>
<path d="M3510 8246 c0 -2 7 -7 16 -10 8 -3 12 -2 9 4 -6 10 -25 14 -25 6z"/>
<path d="M3570 8240 c0 -5 5 -10 10 -10 6 0 10 5 10 10 0 6 -4 10 -10 10 -5 0
-10 -4 -10 -10z"/>
<path d="M6060 8228 c-10 -21 -10 -21 3 -6 8 10 17 15 20 11 4 -3 7 -1 7 5 0
20 -19 13 -30 -10z"/>
<path d="M8460 8240 c0 -4 7 -7 15 -6 23 3 26 12 5 13 -11 1 -20 -2 -20 -7z"/>
<path d="M8512 8245 c4 -4 0 -14 -10 -22 -16 -12 -16 -13 2 -6 15 5 17 3 11
-8 -5 -8 -4 -11 0 -6 14 12 14 36 2 44 -7 3 -9 3 -5 -2z"/>
<path d="M3496 8223 c-10 -10 -7 -33 4 -33 5 0 6 8 3 18 -6 15 -5 15 10 3 9
-7 17 -9 17 -3 0 12 -26 23 -34 15z"/>
<path d="M3638 8223 c7 -3 16 -2 19 1 4 3 -2 6 -13 5 -11 0 -14 -3 -6 -6z"/>
<path d="M8377 8217 c3 -5 14 -6 25 -4 14 4 18 2 14 -9 -3 -8 -1 -14 5 -14 24
0 2 33 -23 34 -14 1 -24 -2 -21 -7z"/>
<path d="M3557 8207 c-3 -8 -2 -20 3 -26 5 -9 8 -4 8 13 0 29 -3 32 -11 13z"/>
<path d="M6094 8195 c1 -11 6 -19 12 -18 5 1 16 -7 22 -18 11 -17 10 -20 -5
-17 -10 2 -26 14 -35 28 -10 14 -18 21 -18 17 0 -5 9 -22 21 -38 20 -28 22
-29 45 -15 14 10 25 12 29 6 3 -6 12 -10 18 -10 7 0 3 7 -7 15 -10 8 -23 12
-27 9 -4 -2 -13 5 -19 16 -6 11 -15 18 -20 15 -5 -3 -10 3 -13 12 -3 14 -4 13
-3 -2z"/>
<path d="M3617 8193 c5 -15 3 -16 -8 -5 -7 6 -17 12 -23 12 -5 0 -1 -6 9 -14
11 -8 23 -12 27 -10 11 7 10 34 -2 34 -5 0 -7 -8 -3 -17z"/>
<path d="M3656 8198 c3 -5 10 -6 15 -3 13 9 11 12 -6 12 -8 0 -12 -4 -9 -9z"/>
<path d="M6026 8202 c-3 -4 4 -9 15 -9 23 -2 25 3 4 10 -8 4 -16 3 -19 -1z"/>
<path d="M6140 8198 c-12 -8 -12 -9 2 -5 9 3 19 1 22 -6 3 -9 5 -9 5 0 1 18
-13 23 -29 11z"/>
<path d="M6190 8195 c0 -8 4 -15 8 -15 5 0 9 7 9 15 0 8 -4 15 -9 15 -4 0 -8
-7 -8 -15z"/>
<path d="M8340 8206 c0 -2 7 -6 15 -10 8 -3 15 -1 15 4 0 6 -7 10 -15 10 -8 0
-15 -2 -15 -4z"/>
<path d="M8455 8200 c-3 -5 -3 -10 2 -11 4 -1 -3 -5 -17 -10 l-25 -8 25 2 c14
2 24 8 22 15 -2 10 4 12 20 7 18 -5 20 -4 8 4 -19 13 -27 14 -35 1z"/>
<path d="M3477 8179 c7 -7 15 -10 18 -7 3 3 -2 9 -12 12 -14 6 -15 5 -6 -5z"/>
<path d="M3522 8178 c-7 -7 -12 -16 -12 -22 0 -5 7 -1 15 10 15 19 16 19 13
-1 -2 -11 -7 -24 -13 -28 -6 -5 -4 -7 4 -5 16 5 25 44 12 52 -4 3 -13 0 -19
-6z"/>
<path d="M3636 8173 c-6 -14 -5 -15 5 -6 7 7 10 15 7 18 -3 3 -9 -2 -12 -12z"/>
<path d="M8379 8185 c-6 -26 -1 -49 11 -53 9 -2 11 0 5 5 -5 4 -10 15 -10 23
0 8 5 18 10 22 6 5 5 8 -2 8 -7 0 -13 -2 -14 -5z"/>
<path d="M8510 8181 c0 -6 4 -12 8 -15 5 -3 9 1 9 9 0 8 -4 15 -9 15 -4 0 -8
-4 -8 -9z"/>
<path d="M6034 8162 c2 -9 -2 -20 -8 -25 -6 -4 0 -6 13 -4 32 5 38 23 13 36
-17 9 -20 8 -18 -7z m26 -12 c0 -5 -2 -10 -4 -10 -3 0 -8 5 -11 10 -3 6 -1 10
4 10 6 0 11 -4 11 -10z"/>
<path d="M3585 8160 c3 -5 8 -10 11 -10 2 0 4 5 4 10 0 6 -5 10 -11 10 -5 0
-7 -4 -4 -10z"/>
<path d="M3659 8163 c-1 -4 -1 -12 0 -16 2 -11 -32 -4 -42 8 -5 6 -7 4 -5 -4
2 -8 13 -16 25 -17 24 -4 50 20 33 31 -5 3 -11 3 -11 -2z"/>
<path d="M6170 8166 c0 -2 7 -7 16 -10 8 -3 12 -2 9 4 -6 10 -25 14 -25 6z"/>
<path d="M8340 8160 c0 -5 5 -10 10 -10 6 0 10 5 10 10 0 6 -4 10 -10 10 -5 0
-10 -4 -10 -10z"/>
<path d="M8470 8161 c0 -6 7 -8 15 -4 10 3 15 0 13 -8 -2 -8 4 -15 12 -15 32
-3 34 -5 17 -15 -14 -8 -23 -7 -38 7 -10 9 -19 13 -19 8 0 -5 14 -18 30 -27
17 -10 30 -26 31 -35 0 -11 2 -12 6 -4 3 7 0 19 -6 26 -9 10 -8 15 5 20 13 5
14 9 4 21 -6 7 -18 11 -26 8 -9 -3 -14 0 -12 8 2 7 -5 15 -14 17 -10 2 -18 -1
-18 -7z"/>
<path d="M3562 8156 c4 -5 2 -16 -5 -25 -10 -14 -10 -14 4 -3 14 11 18 9 24
-15 5 -21 8 -24 16 -12 5 7 9 19 9 24 0 6 -5 3 -10 -5 -8 -13 -10 -13 -10 1 0
9 -8 23 -17 30 -10 7 -15 9 -11 5z"/>
<path d="M3483 8135 c-3 -9 -3 -19 1 -22 3 -4 6 1 6 11 0 10 5 14 12 10 7 -4
8 -3 4 4 -10 16 -15 15 -23 -3z"/>
<path d="M8416 8141 c-3 -5 1 -14 10 -21 12 -11 17 -11 27 0 9 10 9 11 0 6 -7
-4 -19 -4 -25 0 -9 6 -5 10 12 15 23 6 23 7 3 8 -12 1 -24 -3 -27 -8z"/>
<path d="M6200 8127 c0 -9 -16 -34 -35 -54 -33 -35 -34 -37 -15 -50 24 -17 26
-33 3 -33 -9 0 -13 3 -10 7 4 3 -1 12 -11 19 -16 12 -16 15 0 44 10 17 13 28
8 25 -6 -3 -10 -2 -10 4 0 6 -14 -3 -30 -19 -33 -33 -64 -42 -36 -11 16 17 15
20 -3 42 -11 13 -21 21 -22 17 -1 -5 -2 -11 -3 -15 -1 -5 -5 -14 -9 -20 -5 -7
-4 -13 1 -13 6 0 13 8 16 17 6 15 8 15 16 3 5 -8 6 -17 2 -20 -4 -3 -14 -14
-22 -25 -8 -11 -10 -17 -6 -13 10 8 66 -21 66 -34 0 -12 -8 -10 -36 8 -13 9
-27 14 -31 10 -3 -3 -1 -6 7 -6 10 0 10 -4 -1 -17 -12 -16 -12 -17 2 -6 13 10
19 10 35 -3 16 -14 17 -15 2 -10 -21 6 -48 -2 -48 -16 0 -5 6 -6 13 -1 18 12
58 11 54 -2 -2 -5 -15 -10 -30 -10 -27 -1 -52 -15 -26 -15 12 0 11 -2 -1 -11
-12 -8 -11 -9 5 -5 16 5 21 1 22 -15 2 -17 -1 -19 -10 -10 -6 6 -16 11 -21 11
-6 0 0 -7 12 -16 12 -8 22 -20 22 -26 0 -6 -8 -4 -17 5 -17 15 -18 13 -20 -19
-1 -19 2 -34 8 -34 5 0 9 -4 9 -10 0 -5 -5 -9 -12 -7 -11 2 -13 -10 -20 -113
-2 -19 -6 -37 -10 -40 -4 -3 6 -14 22 -23 25 -15 29 -16 24 -3 -3 9 -10 14
-14 11 -5 -3 -12 0 -16 6 -5 8 -3 9 6 4 10 -6 11 -4 4 6 -12 20 -14 38 -4 44
5 3 7 14 5 25 -2 11 1 20 6 20 6 0 7 5 3 12 -4 7 -3 8 4 4 8 -5 10 -2 6 8 -3
9 -1 16 4 16 6 0 9 -9 7 -20 -2 -12 0 -18 6 -14 6 3 19 -2 30 -12 22 -20 38
-12 19 11 -16 19 -3 20 16 1 9 -10 10 -17 4 -21 -6 -4 -7 -11 -4 -17 8 -13
-12 -2 -39 20 -22 20 -35 7 -15 -15 9 -10 13 -23 11 -30 -2 -6 1 -15 8 -19 8
-5 9 -3 4 6 -6 9 -4 11 5 5 15 -9 7 8 -19 39 -14 17 -12 17 13 -2 24 -18 32
-20 44 -10 13 10 14 10 8 1 -4 -7 -5 -13 -2 -13 3 0 10 9 16 20 9 17 8 19 -7
14 -15 -5 -16 -4 -3 5 22 16 29 13 27 -9 -1 -11 -4 -20 -7 -20 -4 0 -7 -7 -7
-16 0 -14 2 -14 14 2 7 10 13 13 13 8 0 -6 -6 -16 -12 -22 -16 -16 -18 -70 -3
-76 6 -2 12 8 13 23 1 27 8 93 15 148 3 21 1 30 -7 27 -7 -3 -12 5 -12 16 0
11 4 20 8 20 4 0 8 -5 8 -11 0 -5 5 -7 11 -3 8 4 8 9 1 13 -7 4 -8 12 -2 21 5
9 5 19 -2 27 -7 9 -7 17 2 28 9 11 9 15 1 15 -7 0 -10 4 -6 9 3 6 -3 15 -12
21 -16 10 -16 11 3 7 12 -3 21 1 21 8 0 9 -7 11 -21 5 -15 -5 -21 -15 -20 -34
1 -16 -3 -25 -10 -23 -6 3 -10 10 -8 17 2 7 -2 16 -8 20 -7 4 6 16 32 28 24
12 37 21 29 22 -11 0 -11 3 -1 15 11 13 10 14 -4 9 -10 -4 -15 -13 -12 -21 4
-8 1 -13 -5 -11 -6 2 -10 7 -9 11 0 5 -9 17 -22 27 l-23 19 27 25 c27 26 44
63 34 73 -3 4 -6 -1 -6 -10z m-81 -71 c-9 -19 -8 -29 5 -47 21 -30 20 -40 -1
-33 -11 4 -14 2 -8 -3 15 -13 14 -26 -5 -44 -15 -14 -20 -14 -41 -2 -19 11
-20 13 -4 9 31 -8 43 6 40 44 -4 49 -4 50 -12 49 -23 -4 -21 3 4 26 35 30 35
30 22 1z m47 -92 c-30 -21 -44 -16 -17 7 13 11 27 17 30 13 3 -3 -3 -12 -13
-20z m-11 -33 c3 -5 0 -13 -6 -17 -8 -5 -9 -3 -4 5 6 10 3 11 -14 1 -17 -8
-20 -15 -12 -24 6 -7 8 -16 4 -19 -13 -14 -21 -6 -18 19 3 34 36 57 50 35z
m52 -21 c1 -11 -3 -20 -9 -20 -6 0 -3 -8 6 -19 16 -18 16 -20 0 -36 -21 -21
-26 -55 -8 -62 6 -2 11 -12 10 -20 -3 -21 -46 -25 -68 -6 -22 20 -44 7 -26
-15 9 -11 5 -10 -13 3 -15 11 -22 23 -17 26 5 3 2 9 -8 13 -12 5 -23 1 -31
-10 -11 -15 -12 -14 -10 4 0 11 4 20 7 20 28 -2 33 3 18 20 -16 18 -21 55 -6
46 5 -3 6 -10 3 -15 -6 -8 8 -13 28 -10 4 0 7 -4 7 -10 0 -6 -7 -8 -16 -5 -9
3 -12 2 -9 -5 4 -6 13 -8 20 -5 9 3 12 -1 10 -13 -2 -13 4 -17 25 -17 16 0 27
3 24 8 -3 4 3 5 13 2 15 -5 16 -4 3 6 -13 10 -13 11 3 6 9 -3 17 -1 17 4 0 6
-7 10 -15 10 -8 0 -15 4 -15 9 0 13 28 33 38 27 5 -3 9 1 9 8 0 8 -7 12 -15 8
-10 -3 -13 -1 -8 6 3 6 1 14 -5 18 -15 9 -30 -17 -19 -32 6 -6 7 -14 3 -17 -3
-4 -12 1 -20 11 -12 16 -13 16 -7 0 3 -10 2 -18 -4 -18 -14 0 -8 30 8 40 11 7
11 11 1 24 -12 14 -11 16 5 13 11 -1 25 -6 32 -11 14 -8 26 -2 28 15 4 26 9
26 11 -1z m-116 -12 c1 -7 2 -21 2 -30 0 -10 4 -18 8 -18 5 0 8 -6 7 -12 -2
-7 5 -12 14 -12 10 1 15 -2 12 -7 -3 -5 1 -9 8 -9 8 0 7 -5 -4 -16 -16 -17
-43 -11 -32 7 7 13 -15 41 -27 33 -5 -3 -9 -1 -9 5 0 5 5 13 11 17 8 4 7 9 -2
15 -12 7 -12 9 0 9 11 0 11 3 1 15 -9 10 -9 15 -1 15 6 0 12 -6 12 -12z m76
-33 c0 -8 -4 -12 -9 -9 -5 3 -6 10 -3 15 9 13 12 11 12 -6z m26 -220 c-3 -9
-8 -14 -10 -11 -3 3 -2 9 2 15 9 16 15 13 8 -4z"/>
<path d="M6160 7771 c-8 -6 -19 -7 -25 -4 -5 3 -4 0 3 -8 7 -8 24 -14 37 -14
20 -1 22 2 14 17 -11 21 -10 20 -29 9z m15 -11 c-3 -5 -12 -10 -18 -10 -7 0
-6 4 3 10 19 12 23 12 15 0z"/>
<path d="M8358 8128 c10 -13 10 -17 0 -21 -7 -2 -11 -7 -8 -10 3 -3 13 0 22 7
15 11 15 13 -5 26 -20 12 -21 12 -9 -2z"/>
<path d="M3663 8122 c-9 -5 -6 -12 10 -21 19 -13 21 -12 10 1 -7 8 -10 18 -6
21 9 9 1 8 -14 -1z"/>
<path d="M6070 8120 c0 -5 5 -10 10 -10 6 0 10 5 10 10 0 6 -4 10 -10 10 -5 0
-10 -4 -10 -10z"/>
<path d="M6142 8121 c-7 -4 -4 -11 9 -20 12 -7 18 -8 15 -3 -3 6 -1 12 6 14 8
3 7 6 -3 10 -9 3 -21 3 -27 -1z"/>
<path d="M3500 8105 c-7 -8 -9 -15 -6 -15 4 0 14 7 22 15 9 8 11 15 6 15 -5 0
-15 -7 -22 -15z"/>
<path d="M3622 8108 c-14 -14 -16 -48 -3 -48 5 0 7 9 4 20 -7 27 5 25 17 -2
l9 -23 0 23 c1 12 -4 22 -10 22 -5 0 -7 5 -4 10 8 14 2 13 -13 -2z"/>
<path d="M8412 8098 c14 -21 15 -28 4 -37 -13 -11 -26 -5 -26 11 0 5 4 6 10 3
6 -4 7 1 3 11 -4 11 -8 13 -11 6 -2 -7 -9 -9 -14 -6 -13 8 -5 -7 26 -51 12
-16 21 -37 20 -45 -3 -37 -4 -41 -13 -36 -4 3 -7 17 -6 30 2 16 -6 35 -23 53
-14 15 -24 30 -23 31 1 2 1 5 -1 7 -2 2 -4 -11 -4 -30 0 -19 4 -35 9 -35 5 0
3 -8 -4 -17 -11 -15 -11 -16 0 -6 14 12 41 7 41 -9 0 -5 -4 -7 -9 -4 -12 8
-41 -4 -41 -16 0 -6 6 -5 15 2 12 10 18 10 30 0 8 -7 15 -17 15 -22 0 -6 -6
-5 -14 2 -11 8 -20 9 -33 1 -14 -8 -15 -10 -3 -11 13 0 13 -1 0 -11 -12 -8
-11 -9 5 -5 16 5 21 1 22 -15 2 -17 -1 -18 -13 -8 -8 6 -17 9 -21 5 -3 -3 0
-6 8 -6 12 0 11 -2 -1 -11 -13 -8 -12 -9 4 -7 10 2 21 -2 23 -9 3 -8 -3 -11
-16 -8 -18 3 -20 1 -11 -15 13 -23 13 -33 1 -25 -5 3 -13 0 -17 -6 -4 -7 -3
-9 4 -5 6 3 13 2 17 -4 3 -5 0 -10 -9 -10 -10 0 -14 -9 -12 -32 2 -18 -1 -36
-6 -39 -6 -3 -2 -9 7 -12 10 -5 14 -3 9 5 -4 7 -3 8 4 4 7 -4 12 -2 12 5 0 7
3 9 7 6 3 -4 18 0 32 9 l26 15 -24 -20 c-14 -13 -18 -21 -10 -21 12 0 12 -2 1
-9 -11 -7 -10 -9 3 -14 11 -5 14 -3 10 6 -4 6 1 3 11 -8 14 -17 16 -18 10 -2
-3 10 -2 16 3 13 5 -3 14 1 21 8 12 15 53 18 44 4 -3 -4 2 -5 11 -1 13 5 14 7
3 14 -10 7 -9 9 5 9 9 0 17 4 17 10 0 5 -7 7 -15 4 -13 -5 -13 -3 -1 21 8 15
13 36 11 46 -2 11 2 19 8 19 8 0 8 3 2 8 -5 4 -12 16 -13 27 -5 25 -20 35 -41
27 -14 -5 -14 -3 -3 11 8 9 11 20 8 26 -4 5 3 12 14 16 11 3 20 13 20 21 0 10
5 12 13 8 8 -5 8 -2 -2 9 -7 9 -10 17 -5 17 4 0 3 5 -4 12 -16 16 -15 33 1 19
10 -8 14 -7 14 2 0 7 -9 14 -19 14 -14 1 -18 -4 -16 -19 2 -12 -3 -23 -10 -25
-6 -3 -10 1 -9 9 2 7 2 10 0 5 -3 -4 -9 -5 -14 -1 -5 3 -9 1 -9 -5 0 -5 6 -12
13 -14 10 -4 10 -6 0 -6 -7 -1 -13 -6 -13 -12 0 -8 4 -8 15 1 15 12 35 6 35
-11 0 -6 -4 -7 -10 -4 -5 3 -18 1 -29 -4 -15 -8 -20 -7 -25 5 -3 9 -4 20 -1
25 4 5 0 6 -7 4 -9 -4 -14 2 -15 16 -1 14 2 18 10 12 8 -6 23 1 46 22 26 25
30 34 20 40 -8 5 -11 5 -7 0 8 -8 -40 -55 -56 -55 -6 0 2 13 17 28 15 15 27
31 27 36 0 4 -16 -10 -35 -31 -19 -20 -37 -34 -41 -31 -3 4 1 14 10 23 17 17
9 46 -17 62 -6 4 -4 -5 5 -19z m-24 -78 c7 -11 8 -20 2 -20 -5 0 -14 9 -20 20
-6 11 -7 20 -3 20 5 0 14 -9 21 -20z m139 -25 c0 -8 -4 -12 -9 -9 -5 3 -6 10
-3 15 9 13 12 11 12 -6z m-69 -50 c10 -21 0 -47 -11 -28 -2 5 -2 3 -1 -4 2 -6
-4 -14 -12 -17 -12 -5 -14 -1 -9 17 6 21 5 21 -8 -2 -9 -15 -17 -20 -21 -12
-4 6 -3 11 2 11 5 0 15 14 22 30 15 36 23 38 38 5z m40 4 c-9 -5 -15 -16 -12
-23 3 -8 0 -17 -6 -21 -8 -5 -8 -11 1 -21 14 -17 33 -19 23 -2 -4 7 -3 8 5 4
6 -4 9 -11 6 -16 -3 -4 -1 -10 5 -12 6 -2 1 -9 -11 -17 -19 -11 -21 -11 -16 3
8 21 -8 29 -22 12 -10 -11 -8 -17 6 -24 15 -9 13 -10 -9 -9 -23 2 -31 17 -16
33 4 3 4 12 1 20 -3 8 2 23 11 33 9 10 13 21 9 25 -8 8 15 26 32 26 6 -1 2 -5
-7 -11z m-103 -19 c3 -6 -1 -7 -9 -4 -18 7 -21 14 -7 14 6 0 13 -4 16 -10z
m47 -55 c4 -5 4 -14 0 -20 -3 -5 -8 -17 -9 -26 -3 -21 51 -24 68 -3 6 8 17 14
23 14 6 0 4 -5 -4 -10 -8 -5 -10 -10 -3 -10 9 0 11 -27 3 -37 -2 -2 -4 -7 -5
-13 -1 -5 -4 -12 -5 -15 -1 -3 -3 -11 -4 -17 -1 -7 -8 -12 -15 -10 -8 2 -21
-3 -30 -11 -14 -12 -22 -13 -48 -8 -3 0 2 10 11 20 10 11 13 21 7 25 -5 4 -12
2 -16 -4 -4 -6 -11 -8 -16 -5 -5 4 -9 2 -9 -2 0 -5 -10 -10 -22 -10 -18 -2
-20 0 -8 7 8 5 10 10 4 10 -6 0 -11 7 -11 15 0 13 3 13 18 -1 11 -10 19 -12
24 -4 3 5 11 7 17 4 6 -4 8 -3 5 3 -3 5 0 10 8 10 8 0 11 -5 8 -11 -3 -6 -3
-8 2 -4 4 4 14 3 22 -3 9 -8 13 -8 13 -1 0 6 9 9 20 7 12 -2 18 0 15 6 -4 5
-10 7 -15 4 -5 -3 -11 -1 -15 5 -6 9 16 15 40 10 6 -1 5 4 -1 10 -14 14 -58
-5 -49 -21 4 -5 2 -9 -3 -9 -17 0 -22 13 -10 29 10 13 10 14 -2 4 -19 -17 -42
14 -29 39 7 14 6 16 -5 12 -8 -3 -13 -14 -11 -25 3 -12 0 -17 -7 -13 -7 5 -8
2 -3 -6 6 -9 4 -11 -6 -6 -8 4 -5 0 5 -8 11 -9 18 -16 15 -17 -2 0 -12 -2 -21
-4 -21 -4 -20 15 4 63 11 22 13 32 5 32 -7 0 -6 4 3 9 17 11 32 10 42 -4z
m-18 -81 c3 -8 2 -12 -4 -9 -6 3 -10 10 -10 16 0 14 7 11 14 -7z"/>
<path d="M8460 7880 c0 -5 5 -10 11 -10 5 0 7 5 4 10 -3 6 -8 10 -11 10 -2 0
-4 -4 -4 -10z"/>
<path d="M8447 7752 c1 -3 -4 -13 -13 -23 -13 -15 -13 -17 -1 -15 8 1 22 8 31
15 8 7 19 10 24 7 5 -3 9 1 9 9 0 10 -5 11 -17 5 -9 -5 -21 -5 -27 -1 -5 5 -8
6 -6 3z"/>
<path d="M3520 8089 c-23 -19 -39 -56 -19 -43 5 3 7 9 5 13 -3 4 4 12 14 19
16 10 21 9 29 -6 6 -9 11 -12 11 -4 0 6 5 12 11 12 5 0 7 -4 4 -10 -3 -5 -1
-10 5 -10 17 0 6 25 -11 26 -31 3 -33 6 -14 14 13 6 15 9 5 9 -8 0 -26 -9 -40
-20z"/>
<path d="M6097 8103 c-4 -3 -7 -11 -7 -17 0 -6 5 -5 12 2 6 6 9 14 7 17 -3 3
-9 2 -12 -2z"/>
<path d="M8457 8103 c-4 -3 -7 -11 -7 -17 0 -6 5 -5 12 2 6 6 9 14 7 17 -3 3
-9 2 -12 -2z"/>
<path d="M6210 8086 c0 -8 -9 -22 -21 -30 -12 -8 -18 -19 -14 -25 9 -15 18
-14 41 5 18 15 18 15 -3 5 -33 -17 -39 -13 -15 9 20 19 30 50 17 50 -3 0 -5
-6 -5 -14z"/>
<path d="M3525 8060 c-3 -5 -1 -10 4 -10 6 0 11 5 11 10 0 6 -2 10 -4 10 -3 0
-8 -4 -11 -10z"/>
<path d="M3660 8058 c0 -4 4 -8 9 -8 6 0 12 4 15 8 3 5 -1 9 -9 9 -8 0 -15 -4
-15 -9z"/>
<path d="M3540 8040 c-8 -5 -18 -6 -22 -4 -4 3 -8 0 -8 -5 0 -14 3 -14 35 1
22 10 28 9 40 -8 15 -19 15 -19 30 0 12 16 19 18 39 8 14 -6 27 -8 30 -3 6 9
1 10 -74 16 -31 2 -62 0 -70 -5z m70 -10 c0 -5 -4 -10 -10 -10 -5 0 -10 5 -10
10 0 6 5 10 10 10 6 0 10 -4 10 -10z"/>
<path d="M3546 8015 c-10 -8 -23 -12 -29 -8 -6 3 -7 1 -4 -4 4 -6 0 -14 -9
-17 -9 -4 -14 -9 -11 -12 3 -3 16 2 29 10 14 9 28 13 33 9 4 -5 5 -2 1 5 -4 6
-2 12 4 12 6 0 10 -8 8 -17 -2 -10 -10 -17 -17 -15 -8 2 -21 -4 -31 -13 -9 -8
-19 -13 -22 -10 -2 3 -5 -2 -5 -10 0 -14 11 -19 30 -16 5 1 7 -4 4 -11 -2 -7
-13 -12 -23 -10 -16 2 -17 1 -4 -7 13 -10 13 -11 0 -11 -9 0 -11 -3 -5 -8 16
-11 18 -35 2 -29 -7 3 -14 -1 -14 -8 0 -8 3 -14 6 -13 18 2 24 -3 12 -11 -7
-5 -14 -27 -15 -49 -1 -23 -5 -44 -9 -48 -4 -4 -2 -13 4 -21 8 -8 8 -13 1 -13
-6 0 -9 -8 -8 -17 2 -10 -2 -22 -8 -26 -7 -6 -5 -7 5 -4 9 3 21 1 27 -5 8 -8
11 -5 9 11 -1 12 -6 20 -14 17 -7 -3 -10 1 -6 9 3 8 9 13 13 10 4 -3 14 3 21
12 8 9 9 14 3 10 -6 -3 -11 0 -11 7 0 13 50 16 62 4 4 -4 14 -4 23 -1 15 4 15
3 2 -6 -12 -8 -11 -10 6 -9 17 2 21 8 19 30 -1 15 1 25 6 22 5 -3 7 -10 3 -15
-3 -5 0 -8 6 -7 15 4 22 -29 9 -38 -5 -3 -7 -10 -4 -15 4 -5 1 -9 -4 -9 -13 0
-14 12 -3 26 4 5 -1 1 -10 -9 -23 -25 -23 -37 0 -32 12 2 18 -3 18 -15 0 -10
-5 -16 -10 -13 -5 4 -6 1 -1 -6 6 -10 3 -11 -16 -1 -13 7 -21 9 -17 5 4 -5 3
-14 -2 -20 -7 -9 -6 -14 4 -18 20 -8 57 3 50 15 -3 5 -2 14 3 21 10 15 10 38
0 55 -5 7 -3 12 4 12 7 0 9 10 7 25 -3 14 -1 28 4 31 5 3 7 13 4 21 -4 9 -1
22 5 29 8 10 8 14 0 14 -13 0 -10 22 4 32 6 5 5 8 -3 8 -7 0 -10 4 -7 10 3 6
-1 7 -10 4 -11 -5 -14 -2 -9 9 3 9 11 15 17 13 7 -1 9 -1 5 1 -5 3 -8 9 -8 14
0 6 6 7 13 3 8 -5 8 -2 -2 9 -11 14 -11 17 0 17 9 1 8 4 -4 11 -13 8 -22 7
-33 -1 -8 -7 -14 -8 -14 -2 0 5 7 15 15 22 12 10 18 10 33 -1 15 -13 16 -12 3
4 -16 21 -25 21 -44 2 -12 -12 -16 -12 -20 -1 -7 18 34 37 54 25 11 -6 16 -4
16 6 0 8 -3 13 -5 10 -3 -3 -16 2 -29 10 -22 15 -29 10 -24 -19 1 -5 -5 -6
-14 -2 -9 3 -13 2 -10 -4 3 -6 2 -10 -4 -10 -6 0 -16 11 -23 24 -12 22 -15 23
-32 11z m50 -43 c12 -8 34 -46 34 -59 0 -4 -5 -1 -11 7 -8 12 -9 9 -4 -10 l6
-25 -20 24 c-25 28 -27 43 -4 34 15 -6 16 -5 3 9 -8 9 -17 12 -18 7 -2 -5 -8
-7 -13 -3 -10 6 -3 24 9 24 4 0 12 -4 18 -8z m-32 -24 c8 -12 14 -24 12 -27
-2 -3 7 -14 20 -24 23 -17 24 -17 39 13 8 16 21 30 28 29 9 0 9 -2 0 -6 -7 -2
-13 -9 -13 -14 0 -6 5 -7 11 -3 6 3 3 -8 -6 -25 -14 -29 -14 -32 0 -38 13 -4
14 -8 4 -14 -7 -4 -19 -3 -26 3 -9 7 -14 6 -19 -6 -3 -9 -10 -16 -15 -16 -6 0
-5 9 1 21 7 11 17 18 24 16 7 -3 13 4 14 16 1 16 -1 18 -7 8 -5 -8 -14 -10
-21 -6 -8 5 -11 4 -6 -3 3 -6 2 -13 -3 -16 -5 -3 -12 1 -15 10 -5 13 -9 14
-21 4 -11 -9 -14 -8 -12 9 1 16 6 20 22 15 16 -4 17 -3 5 5 -23 16 -43 13 -36
-5 4 -10 2 -13 -7 -8 -6 4 -9 4 -5 -1 4 -4 3 -16 -3 -26 -7 -14 -7 -19 2 -17
6 2 14 -3 16 -10 3 -7 -1 -11 -8 -10 -7 2 -13 -6 -14 -17 0 -11 -6 -19 -12
-17 -18 3 -16 -1 13 -29 14 -13 24 -18 22 -10 -2 7 3 16 11 19 8 2 11 0 7 -6
-3 -6 -1 -14 5 -18 8 -5 9 -3 4 6 -6 9 -4 11 5 5 9 -5 11 -4 6 3 -5 8 -1 10
11 6 15 -5 16 -4 3 6 -13 10 -12 11 5 6 17 -5 16 -3 -5 13 -13 11 -28 17 -32
15 -4 -3 -5 2 -2 10 5 14 10 13 35 -5 16 -11 29 -25 29 -30 0 -6 5 -7 11 -3 8
4 7 9 -2 16 -10 7 -9 8 6 4 19 -6 19 -5 3 8 -23 17 -23 21 0 23 20 2 28 -32
10 -43 -7 -4 -6 -9 2 -14 7 -4 9 -13 5 -20 -5 -8 -12 -7 -25 5 -19 17 -29 11
-25 -16 3 -15 -20 -19 -40 -7 -6 3 -23 5 -40 4 -24 -2 -30 -6 -29 -24 1 -18
-1 -20 -12 -11 -8 6 -11 16 -7 23 4 6 8 25 8 43 1 17 6 37 11 45 5 7 9 22 9
33 0 11 4 23 10 27 6 5 5 8 -4 8 -10 0 -8 7 9 25 12 13 28 21 34 18 6 -4 5 1
-3 10 -7 9 -19 17 -25 17 -6 0 -4 -5 4 -10 12 -7 10 -9 -8 -7 -25 1 -27 8 -10
25 17 17 25 15 42 -10z m22 -115 c-3 -4 -6 0 -6 8 0 11 -2 11 -9 1 -6 -10 -10
-10 -21 3 -11 13 -10 15 4 9 10 -4 16 -1 16 7 0 9 4 7 11 -4 6 -10 8 -21 5
-24z m-33 -30 c-4 -9 0 -13 8 -11 8 2 15 -1 16 -7 0 -5 -4 -9 -9 -7 -6 1 -16
-2 -23 -8 -9 -7 -15 -7 -19 -1 -4 5 -1 13 5 16 5 4 8 13 6 19 -3 7 1 13 8 13
7 0 11 -7 8 -14z m77 -203 c0 -5 -4 -10 -10 -10 -5 0 -10 5 -10 10 0 6 5 10
10 10 6 0 10 -4 10 -10z"/>
<path d="M3503 7757 c0 -8 6 -14 14 -14 9 0 10 4 2 14 -6 7 -12 13 -14 13 -1
0 -2 -6 -2 -13z"/>
<path d="M3585 7740 c-3 -6 1 -7 9 -4 18 7 21 14 7 14 -6 0 -13 -4 -16 -10z"/>
<path d="M8525 7934 c-17 -13 -18 -16 -5 -24 8 -5 20 -9 25 -9 6 0 4 3 -2 6
-7 2 -13 9 -13 14 0 6 4 8 8 5 5 -3 9 1 9 9 0 8 -1 15 -1 15 -1 0 -10 -7 -21
-16z"/>
<path d="M6049 7721 c-2 -14 -6 -30 -9 -33 -10 -13 -5 -40 9 -51 9 -6 16 -18
16 -26 0 -19 -32 -23 -39 -5 -8 22 -29 17 -23 -6 3 -11 2 -20 -2 -20 -7 0 -13
-30 -14 -72 0 -16 -4 -25 -10 -21 -6 3 -7 1 -3 -5 3 -6 2 -13 -3 -16 -5 -3 -7
-19 -6 -36 1 -16 -1 -30 -5 -30 -8 0 -17 -28 -27 -80 -2 -13 -9 -30 -15 -37
-6 -7 -8 -13 -5 -13 4 0 -5 -29 -18 -64 -13 -35 -21 -66 -18 -70 4 -3 0 -6 -7
-6 -7 0 -11 -3 -8 -6 4 -3 -2 -24 -12 -47 -10 -23 -16 -45 -14 -49 3 -4 0 -8
-7 -8 -10 0 -10 -3 -1 -12 10 -10 15 -10 23 2 9 13 10 13 6 0 -2 -8 -12 -15
-23 -15 -14 0 -18 -7 -17 -23 2 -15 -1 -21 -9 -16 -6 4 -8 3 -4 -4 3 -5 1 -12
-5 -14 -7 -2 -12 -18 -13 -36 0 -17 -7 -34 -14 -37 -7 -3 -10 -9 -7 -15 3 -5
1 -10 -5 -10 -6 0 -9 -4 -6 -8 3 -5 -1 -21 -9 -36 -9 -17 -10 -24 -3 -20 7 4
3 -6 -8 -22 -11 -16 -31 -63 -44 -104 -13 -41 -27 -79 -31 -85 -5 -8 -9 -26
-21 -92 -5 -26 -33 -36 -88 -32 -95 6 -775 -24 -1025 -46 -33 -3 -87 -8 -120
-11 -33 -3 -78 -7 -100 -9 -22 -1 -67 -6 -100 -10 -33 -4 -71 -8 -85 -10 -31
-3 -148 -17 -175 -21 -99 -13 -133 -17 -220 -30 -55 -8 -115 -17 -134 -20 -18
-2 -36 -6 -40 -9 -4 -2 -26 -5 -49 -6 -23 -2 -42 -6 -42 -9 0 -3 -10 -6 -22
-6 -19 -1 -106 -14 -190 -30 -13 -2 -17 3 -14 19 3 12 5 22 6 22 2 0 2 3 15
60 8 37 10 46 20 67 4 10 8 29 9 43 0 14 5 25 9 25 5 0 5 5 2 10 -3 6 -2 10 3
10 5 0 9 6 10 13 2 24 9 46 50 157 3 8 6 17 7 20 1 3 5 13 9 22 4 9 5 21 2 26
-3 6 1 13 10 16 8 3 12 11 8 17 -3 6 -1 15 6 19 6 4 13 19 13 34 1 14 5 26 10
26 4 0 7 7 7 15 0 9 9 34 21 56 11 23 21 54 21 70 1 15 4 26 8 24 4 -3 10 4
13 15 3 11 1 23 -4 26 -5 3 -9 11 -8 17 0 9 2 9 6 0 8 -20 23 -15 23 7 0 12 9
40 20 62 20 42 14 63 -16 51 -19 -7 -25 12 -9 33 12 17 15 17 27 4 7 -8 9 -12
4 -7 -15 11 -23 9 -29 -7 -4 -11 1 -14 21 -13 16 2 27 8 27 17 0 8 4 20 8 27
6 9 -2 11 -28 8 -19 -3 -35 -1 -35 4 0 6 12 8 27 5 23 -4 25 -3 13 11 -8 10
-9 15 -1 15 6 0 11 -4 11 -10 0 -5 7 -10 16 -10 8 0 13 4 10 8 -2 4 -1 14 4
21 5 8 3 19 -3 27 -10 10 -17 8 -35 -9 -13 -12 -25 -21 -28 -19 -10 6 -24 1
-39 -14 -9 -9 -18 -14 -21 -11 -7 6 34 34 56 39 8 2 17 5 20 8 24 23 62 52 52
38 -9 -11 -10 -18 -2 -23 10 -6 11 -5 14 18 3 15 -13 37 -27 37 -6 0 -7 -3 -4
-6 8 -9 -33 -45 -43 -39 -5 3 -10 2 -13 -2 -2 -5 -2 -1 1 7 3 8 4 23 4 32 0 9
6 19 14 22 8 3 14 1 14 -4 0 -6 -4 -10 -8 -10 -4 0 -8 -10 -9 -22 l-2 -23 19
22 c10 13 16 32 13 42 -6 25 -41 23 -49 -2 -5 -15 -8 -16 -22 -5 -14 11 -15
10 -8 -6 7 -19 6 -19 -14 -1 -21 19 -29 8 -8 -13 9 -9 9 -12 -1 -12 -7 0 -10
-3 -8 -7 3 -5 -1 -14 -9 -21 -17 -15 -18 -8 -4 19 8 14 7 26 -4 46 -10 19 -15
22 -16 11 0 -9 -3 -25 -6 -35 -5 -15 -4 -16 6 -3 10 13 11 12 6 -3 -3 -10 -6
-21 -6 -23 0 -3 -4 -2 -10 1 -5 3 -10 -1 -10 -10 0 -8 -9 -41 -20 -72 -23 -66
-23 -66 -10 -58 6 3 10 1 10 -4 0 -6 -7 -11 -16 -11 -8 0 -12 -5 -9 -11 4 -6
13 -8 21 -5 8 3 24 1 36 -5 20 -8 19 -9 -6 -4 -26 6 -28 4 -17 -9 17 -21 4
-21 -16 0 -20 19 -35 6 -35 -30 0 -14 -4 -23 -9 -20 -5 3 -9 0 -9 -5 0 -19 -2
-26 -11 -42 -5 -10 -3 -21 4 -29 10 -10 8 -12 -6 -7 -11 4 -17 2 -16 -6 2 -17
-12 -57 -20 -57 -4 0 -7 -8 -8 -18 -2 -31 -8 -47 -18 -54 -6 -5 -5 -12 3 -20
6 -6 12 -17 12 -23 0 -5 -5 -3 -10 5 -7 12 -12 12 -22 2 -9 -9 -9 -12 0 -12 7
0 12 -5 12 -11 0 -5 -4 -8 -9 -5 -11 7 -23 -22 -15 -35 3 -5 0 -9 -5 -9 -6 0
-11 -9 -11 -19 0 -11 -6 -21 -12 -24 -10 -3 -10 -8 1 -21 12 -15 12 -16 -5
-10 -18 5 -18 4 1 -11 20 -17 20 -17 -5 -10 -14 4 -22 4 -18 0 3 -3 -7 -42
-22 -86 -16 -43 -26 -79 -23 -79 3 0 0 -6 -6 -14 -6 -7 -12 -25 -13 -40 -1
-14 -5 -26 -9 -26 -4 0 -5 -9 -2 -20 3 -12 0 -20 -7 -20 -8 0 -11 -10 -8 -29
2 -17 1 -28 -4 -25 -4 3 -9 -5 -10 -18 -2 -42 -3 -47 -11 -54 -4 -4 -1 -14 6
-22 9 -13 9 -14 0 -8 -9 5 -13 0 -13 -16 0 -27 -10 -42 -30 -46 -24 -6 -40 -9
-115 -26 -38 -8 -131 -31 -205 -51 -74 -19 -146 -38 -159 -41 -14 -3 -28 -7
-33 -10 -4 -3 -18 -7 -30 -9 -12 -3 -67 -19 -122 -36 -56 -17 -105 -32 -111
-34 -5 -1 -17 -5 -25 -8 -14 -5 -89 -30 -100 -32 -3 -1 -14 -5 -25 -9 -11 -4
-36 -14 -55 -21 -204 -75 -305 -115 -413 -164 -38 -17 -73 -31 -78 -31 -5 0
-9 -4 -9 -10 0 -5 -3 -9 -7 -8 -8 2 -90 -34 -123 -53 -8 -5 -22 -12 -30 -15
-8 -3 -48 -21 -88 -40 -40 -19 -77 -34 -83 -34 -5 0 -9 -5 -9 -12 0 -6 -3 -8
-6 -5 -7 7 -64 -22 -76 -38 -4 -5 -8 -7 -8 -3 0 8 -173 -89 -294 -164 -234
-147 -436 -322 -564 -488 -23 -30 -47 -60 -52 -67 -6 -7 -10 -15 -10 -18 0 -4
-13 -25 -29 -48 -40 -59 -100 -200 -116 -276 -3 -11 -8 -31 -11 -43 -10 -40
-13 -221 -4 -273 23 -126 37 -170 92 -280 61 -121 141 -228 268 -355 108 -109
276 -243 400 -320 30 -19 56 -38 58 -42 2 -5 7 -8 12 -8 5 0 44 -21 87 -46 97
-58 421 -221 453 -228 6 -2 148 -61 195 -81 17 -7 57 -23 90 -34 33 -12 69
-26 80 -31 17 -7 208 -72 225 -76 3 0 12 -3 20 -7 19 -7 186 -58 202 -61 7 -2
38 -10 69 -20 31 -9 65 -19 75 -21 11 -2 107 -26 214 -53 257 -64 380 -92 406
-92 11 0 24 -3 27 -7 4 -3 17 -8 29 -9 37 -6 69 -11 153 -27 90 -18 134 -25
185 -32 19 -3 46 -7 60 -10 14 -3 43 -7 65 -11 22 -3 51 -7 65 -10 69 -12 69
-11 208 -30 17 -2 47 -6 65 -8 17 -3 59 -8 92 -12 33 -3 69 -8 80 -10 10 -2
49 -7 85 -10 68 -7 86 -8 185 -18 116 -12 171 -16 255 -21 47 -3 103 -7 125
-10 22 -2 92 -7 155 -11 63 -3 144 -8 180 -11 86 -6 1193 -12 1203 -6 4 2 58
6 120 8 141 5 304 15 492 30 44 4 100 8 125 10 54 4 163 15 205 19 17 2 59 6
95 10 36 3 75 8 87 10 12 3 50 7 85 10 35 4 74 8 88 11 14 3 43 7 65 9 22 3
54 7 70 10 17 3 50 7 75 10 25 3 59 8 75 11 35 6 75 12 129 21 21 3 48 8 60
10 11 3 37 7 56 10 19 2 42 7 50 9 8 3 33 7 55 10 22 3 51 8 65 11 14 3 34 8
45 10 178 35 437 92 525 116 41 11 82 21 90 23 36 7 146 36 160 42 8 3 20 7
26 8 37 8 278 83 354 110 36 12 67 23 70 23 7 1 14 3 155 56 145 54 232 89
303 122 29 13 55 24 57 24 8 0 275 133 340 170 258 143 449 283 611 444 113
114 159 171 221 271 107 174 147 305 147 480 1 113 -2 136 -19 210 -17 71 -81
227 -97 233 -4 2 -8 8 -8 14 0 29 -127 195 -225 293 -121 122 -138 137 -240
213 -38 28 -81 61 -95 71 -26 21 -194 125 -288 178 -82 47 -403 203 -416 203
-2 0 -48 21 -103 46 -128 60 -286 128 -387 165 -45 17 -90 35 -101 40 -20 9
-286 98 -315 105 -8 2 -53 15 -100 29 -93 29 -261 74 -299 81 -13 3 -32 9 -42
15 -10 5 -22 8 -26 7 -4 0 -19 2 -33 5 -46 12 -295 68 -367 83 -18 3 -22 10
-19 32 2 15 6 34 9 42 7 19 27 99 32 125 2 11 4 22 5 25 1 3 2 8 1 13 0 4 4 7
11 7 6 0 8 3 5 6 -3 4 -2 15 3 25 7 12 7 20 0 24 -5 3 -10 12 -10 18 0 9 3 8
8 -1 6 -9 12 -5 20 13 7 15 10 31 7 36 -4 5 -1 9 4 9 6 0 11 5 11 11 0 5 -6 7
-12 4 -7 -4 -5 0 4 8 10 8 19 23 21 33 1 10 10 33 19 51 12 23 13 34 4 43 -8
9 -7 11 4 8 8 -2 14 4 15 12 0 8 6 25 13 38 7 12 10 27 7 32 -3 6 -1 10 5 10
7 0 10 6 7 14 -3 8 1 17 10 20 13 5 13 9 2 23 -10 12 -10 14 -1 9 6 -4 13 -2
13 3 1 6 3 14 4 19 10 30 17 53 18 59 0 4 7 14 16 20 14 11 13 12 -8 10 -13
-1 -25 4 -27 11 -1 7 0 8 3 2 2 -5 9 -10 14 -10 6 0 7 4 4 10 -4 6 1 7 12 3
10 -3 15 -3 11 2 -4 4 -3 14 3 21 7 9 4 17 -13 28 -12 9 -17 16 -11 16 7 0 15
-4 18 -10 9 -15 22 -12 29 6 3 8 2 12 -4 9 -6 -3 -10 -1 -10 4 0 6 5 11 11 11
5 0 7 5 4 10 -3 6 -1 10 5 10 6 0 4 10 -5 24 -11 17 -13 26 -5 31 6 4 14 4 17
1 4 -3 1 -6 -5 -6 -6 0 -9 -7 -6 -15 4 -8 10 -15 16 -15 5 0 7 3 5 8 -3 4 0
18 6 32 14 36 17 51 6 44 -5 -3 -9 0 -9 5 0 6 7 11 15 11 12 0 13 4 6 18 -10
19 0 46 15 40 5 -1 9 4 10 12 1 8 2 17 3 20 7 15 8 40 2 40 -5 0 -12 10 -18
22 -10 23 -10 22 -26 -9 -23 -43 -21 -53 4 -23 19 23 19 22 -1 -13 -23 -39
-21 -65 2 -28 7 12 17 21 21 21 5 0 -3 -14 -17 -30 -14 -17 -23 -37 -20 -45 4
-8 1 -15 -5 -15 -6 0 -10 4 -9 9 2 5 -8 18 -21 30 -13 12 -20 21 -16 21 5 0
17 -7 27 -17 24 -22 23 -2 -2 27 -11 13 -20 27 -20 33 0 5 9 -1 20 -14 10 -13
19 -19 20 -12 0 6 -5 15 -10 18 -6 4 -4 12 5 21 16 17 21 39 6 29 -15 -9 -25
15 -12 28 9 9 11 8 6 -4 -4 -10 0 -16 10 -16 17 0 19 6 5 27 -7 12 -13 13 -27
4 -19 -12 -19 -43 0 -57 8 -6 5 -7 -6 -3 -11 3 -20 0 -23 -9 -4 -8 -11 -12
-16 -9 -7 4 -4 10 6 16 18 10 21 34 6 43 -6 4 -22 0 -35 -9 -17 -11 -26 -13
-31 -4 -5 7 -3 8 6 3 10 -6 12 -4 7 7 -4 12 0 15 16 11 20 -5 21 -4 5 8 -12 9
-15 19 -9 28 11 17 34 4 27 -15 -4 -10 1 -13 16 -10 12 1 24 9 26 16 3 8 0 10
-7 5 -17 -10 -42 25 -35 49 4 12 2 16 -5 12 -7 -5 -9 -1 -5 8 3 9 1 16 -4 16
-10 0 -29 -65 -24 -82 1 -5 -2 -8 -6 -8 -9 0 -11 -8 -14 -55 -1 -14 -5 -25 -9
-25 -4 0 -9 -9 -12 -21 -3 -12 -3 -19 0 -16 3 3 14 -3 26 -14 11 -10 29 -19
39 -19 10 0 18 -4 18 -10 0 -11 -26 -3 -55 17 -26 18 -35 16 -35 -5 0 -10 -5
-23 -12 -30 -9 -9 -9 -12 2 -12 9 0 8 -5 -6 -15 -10 -8 -16 -15 -12 -15 4 0 0
-16 -8 -35 -8 -19 -11 -35 -8 -35 4 0 1 -7 -6 -15 -7 -8 -9 -15 -4 -15 5 0 3
-4 -4 -8 -7 -5 -15 -19 -18 -33 -3 -13 -6 -28 -7 -34 -2 -5 -6 -16 -10 -22 -6
-9 -3 -11 10 -7 10 3 7 -2 -7 -10 -14 -8 -21 -15 -16 -16 5 0 3 -7 -4 -15 -7
-9 -10 -18 -6 -22 3 -3 -1 -15 -11 -25 -9 -10 -13 -18 -8 -18 4 0 0 -10 -8
-23 -8 -13 -17 -34 -19 -48 -1 -13 -6 -26 -10 -29 -4 -3 -9 -15 -11 -27 -1
-12 -8 -27 -15 -35 -9 -11 -9 -18 1 -28 9 -10 9 -11 0 -6 -14 8 -29 -36 -18
-53 3 -7 0 -8 -10 -5 -11 5 -14 2 -9 -10 3 -9 1 -16 -5 -16 -6 0 -11 -5 -11
-11 0 -5 6 -7 13 -3 6 4 4 -2 -5 -13 -19 -20 -24 -38 -10 -29 5 3 9 -1 9 -8 0
-8 -6 -12 -12 -10 -6 3 -12 -1 -12 -8 0 -7 -8 -30 -17 -50 -12 -29 -13 -38 -4
-38 9 0 10 -3 2 -8 -20 -13 -45 -70 -25 -58 5 4 1 -12 -10 -33 -22 -46 -23
-55 -7 -45 6 4 4 -3 -5 -15 -8 -13 -13 -29 -11 -36 8 -20 -23 -38 -53 -30 -16
4 -46 9 -68 11 -22 2 -50 6 -62 9 -52 12 -77 16 -190 31 -18 2 -50 7 -70 10
-21 3 -51 7 -68 9 -16 2 -50 6 -75 10 -84 11 -115 15 -170 20 -30 3 -66 8 -80
10 -14 3 -56 7 -95 10 -38 3 -92 8 -120 11 -27 3 -75 7 -105 9 -30 2 -91 7
-135 10 -192 14 -424 25 -604 30 -80 2 -154 4 -163 4 -13 1 -17 9 -15 31 1 16
5 30 9 30 6 0 31 64 33 82 0 3 3 10 7 14 4 4 2 14 -5 22 -8 11 -8 14 0 9 10
-7 21 10 24 38 0 6 5 15 11 22 5 7 7 17 3 23 -3 5 -1 10 4 10 6 0 11 9 11 19
0 11 4 22 9 25 5 4 15 29 22 56 7 28 17 50 21 50 5 0 7 4 3 9 -3 5 -1 12 5 16
6 4 8 11 4 16 -3 5 -10 7 -15 4 -5 -4 -9 -1 -9 5 0 6 7 10 16 8 10 -2 19 3 22
11 3 9 0 11 -9 7 -8 -4 -6 -1 4 7 9 8 17 21 17 29 0 8 3 18 7 22 4 3 8 12 9
19 1 7 8 26 15 42 16 39 20 56 20 78 0 9 5 17 11 17 6 0 8 3 4 8 -4 4 -11 7
-16 7 -4 0 -17 11 -29 25 -21 23 -22 24 -16 3 3 -12 2 -24 -3 -27 -16 -10 -10
43 6 56 12 10 14 10 8 1 -4 -7 -3 -13 3 -13 5 0 13 -9 16 -20 4 -11 10 -18 15
-15 5 3 7 13 4 23 -5 14 -4 14 4 2 6 -8 8 -19 5 -25 -4 -6 -2 -6 6 1 6 6 14
22 16 35 3 13 7 34 9 46 4 17 1 21 -12 17 -9 -2 -7 1 5 7 28 15 36 35 22 61
-10 18 -9 20 5 15 10 -4 14 -3 11 2 -3 5 -1 12 4 16 5 3 8 14 6 25 -2 11 0 20
5 20 5 0 8 8 8 18 0 9 2 28 5 42 3 14 8 36 11 49 3 14 0 32 -8 40 -7 9 -12 34
-12 57 2 35 -1 40 -20 40 -13 0 -20 -4 -17 -9 3 -5 0 -13 -7 -17 -17 -11 -52
11 -40 25 5 6 1 20 -11 34 -10 13 -20 18 -20 12z m19 -49 c-7 -8 -12 -17 -10
-19 1 -1 -1 -4 -5 -5 -10 -4 -12 31 -2 38 5 3 6 11 2 17 -4 7 1 6 10 -2 14
-11 15 -16 5 -29z m22 -32 c0 -5 -5 -10 -11 -10 -5 0 -7 5 -4 10 3 6 8 10 11
10 2 0 4 -4 4 -10z m60 -29 c-9 -18 1 -43 16 -42 5 1 10 -8 10 -18 1 -11 -3
-19 -9 -18 -5 1 -12 -4 -15 -12 -2 -8 0 -11 5 -8 5 3 10 0 10 -7 0 -15 -27
-17 -44 -3 -19 14 -17 -8 2 -23 8 -6 20 -8 26 -4 8 4 9 3 5 -4 -10 -16 -22
-15 -39 3 -13 12 -16 12 -21 0 -5 -15 27 -31 54 -27 10 2 9 -1 -4 -9 -13 -8
-15 -13 -6 -19 8 -5 7 -9 -5 -13 -9 -4 -14 -3 -11 2 3 5 -1 11 -9 15 -18 6
-19 1 -5 -24 8 -16 8 -18 -5 -14 -8 3 -12 11 -8 17 4 6 0 8 -9 4 -17 -6 -53
25 -41 36 3 4 1 7 -5 7 -15 0 -15 -15 -1 -38 9 -15 8 -24 -6 -45 -18 -29 -31
-32 -55 -17 -19 12 -6 24 28 25 20 0 27 5 27 19 0 11 -7 22 -15 24 -13 5 -13
3 -1 -11 9 -11 10 -17 2 -17 -6 0 -11 5 -11 12 0 6 -7 4 -18 -5 -10 -10 -23
-17 -28 -17 -5 0 -3 4 5 9 17 11 22 49 9 57 -5 4 0 13 12 21 15 10 18 18 11
27 -7 8 -4 16 10 25 12 7 18 15 15 18 -3 3 -14 0 -23 -8 -16 -12 -17 -12 -6 2
7 9 9 20 5 24 -4 5 -2 5 5 1 6 -3 14 -2 18 4 3 5 2 10 -2 10 -5 0 -9 10 -10
23 -2 21 -1 21 10 2 7 -11 20 -21 31 -23 11 -2 15 1 11 7 -3 6 1 14 10 17 13
6 14 9 3 16 -9 6 -5 7 11 3 15 -5 21 -3 17 3 -4 6 2 15 11 21 24 13 46 -5 33
-28z m2195 -211 c-3 -5 -13 -10 -21 -10 -16 0 -19 -16 -5 -25 15 -9 9 -44 -6
-38 -7 3 -13 9 -13 15 0 5 5 6 10 3 18 -11 11 8 -12 33 -13 14 -17 22 -11 18
7 -4 21 -2 30 3 23 13 36 14 28 1z m-2248 -48 c-27 -34 -56 -60 -61 -54 -6 6
-10 -14 -7 -37 2 -7 -2 -10 -8 -6 -19 11 -12 25 29 64 44 41 49 51 23 51 -9 0
-14 -3 -10 -6 3 -3 -7 -17 -22 -30 -41 -34 -49 -30 -12 5 17 16 31 34 31 40 0
7 7 7 25 -1 21 -9 23 -14 12 -26z m2193 3 c0 -8 -2 -15 -4 -15 -2 0 -6 7 -10
15 -3 8 -1 15 4 15 6 0 10 -7 10 -15z m-4796 -10 c-4 -8 -10 -12 -15 -9 -5 3
-9 -3 -10 -13 0 -13 -2 -14 -6 -4 -3 8 2 20 13 28 23 17 25 16 18 -2z m2496
-26 c0 -4 -8 -10 -17 -14 -21 -8 -23 -7 -22 3 1 4 5 6 11 4 5 -1 8 3 5 10 -2
7 -10 12 -16 10 -7 -1 -10 2 -6 8 6 10 45 -8 45 -21z m123 4 c-10 -9 -26 -25
-35 -36 -10 -10 -18 -15 -18 -10 0 14 54 70 63 66 4 -2 -1 -11 -10 -20z m2242
17 c3 -5 1 -10 -4 -10 -6 0 -11 5 -11 10 0 6 2 10 4 10 3 0 8 -4 11 -10z
m-4924 -51 c-26 -21 -41 -24 -41 -8 0 5 4 8 10 4 5 -3 17 3 27 13 10 10 20 17
23 14 3 -2 -6 -12 -19 -23z m59 23 c0 -5 -20 -23 -45 -42 -43 -32 -44 -34 -30
-57 20 -30 11 -47 -17 -32 -15 8 -17 14 -9 22 17 17 13 31 -4 17 -8 -7 -15 -9
-15 -4 0 5 25 27 55 49 30 22 54 43 55 48 0 10 10 9 10 -1z m4800 -24 c0 -6
-6 -5 -15 2 -8 7 -15 14 -15 16 0 2 7 1 15 -2 8 -4 15 -11 15 -16z m-2287 5
c-7 -2 -13 -12 -13 -21 0 -15 -2 -15 -10 -2 -9 15 4 30 25 29 6 0 4 -3 -2 -6z
m-2433 -13 c0 -5 -2 -10 -4 -10 -3 0 -8 5 -11 10 -3 6 -1 10 4 10 6 0 11 -4
11 -10z m4711 -15 c3 2 11 -5 18 -17 7 -11 8 -17 3 -14 -6 3 -12 3 -15 -1 -2
-5 -2 -2 -1 5 2 6 -1 12 -6 12 -5 0 -14 10 -20 23 -10 20 -10 20 3 5 8 -10 16
-16 18 -13z m59 9 c0 -2 -9 -4 -20 -4 -11 0 -20 4 -20 9 0 5 9 7 20 4 11 -3
20 -7 20 -9z m-2375 -4 c3 -5 1 -10 -4 -10 -6 0 -11 5 -11 10 0 6 2 10 4 10 3
0 8 -4 11 -10z m117 -13 c-12 -7 -19 -16 -16 -20 4 -4 2 -7 -4 -7 -7 0 -12 4
-12 10 0 10 29 29 45 29 6 0 0 -5 -13 -12z m2271 -4 c-4 -11 -3 -14 5 -9 8 5
10 2 6 -9 -5 -11 -2 -14 12 -9 16 6 17 5 6 -7 -11 -12 -15 -11 -26 3 -7 10
-17 14 -21 10 -4 -4 -2 3 4 16 14 26 23 30 14 5z m-4865 -19 c0 -17 -3 -22 -8
-13 -5 6 -6 18 -3 26 8 19 11 16 11 -13z m2462 10 c0 -2 -9 -13 -20 -24 -11
-11 -20 -16 -20 -11 0 6 5 13 11 16 6 4 8 13 5 21 -3 8 0 11 10 7 7 -3 14 -7
14 -9z m60 -4 c0 -5 -4 -10 -10 -10 -5 0 -10 5 -10 10 0 6 5 10 10 10 6 0 10
-4 10 -10z m90 0 c0 -5 -5 -10 -11 -10 -5 0 -7 5 -4 10 3 6 8 10 11 10 2 0 4
-4 4 -10z m2157 4 c-3 -3 -12 -4 -19 -1 -8 3 -5 6 6 6 11 1 17 -2 13 -5z
m-4804 -11 c-7 -2 -19 -2 -25 0 -7 3 -2 5 12 5 14 0 19 -2 13 -5z m2547 -34
c0 -5 -5 -9 -11 -9 -5 0 -7 5 -4 10 3 6 1 10 -4 10 -6 0 -11 5 -11 11 0 8 5 8
15 -1 8 -7 15 -16 15 -21z m2261 18 c-7 -7 -14 -8 -21 -1 -6 6 -2 10 12 11 16
2 18 -1 9 -10z m-4787 -12 c3 -8 1 -15 -4 -15 -6 0 -10 7 -10 15 0 8 2 15 4
15 2 0 6 -7 10 -15z m2477 -14 c-7 -13 -18 -18 -32 -16 -15 3 -19 0 -15 -10 3
-8 1 -17 -3 -19 -5 -3 -8 5 -7 17 1 16 7 22 24 21 16 -1 22 3 18 13 -3 8 -1
11 4 8 6 -3 10 -1 10 6 0 7 3 10 6 7 3 -4 1 -15 -5 -27z m2389 19 c8 -5 11
-12 7 -17 -5 -4 -11 -3 -15 3 -4 6 -14 14 -22 17 -13 5 -13 5 0 6 8 0 22 -3
30 -9z m70 0 c0 -5 -5 -10 -11 -10 -5 0 -7 5 -4 10 3 6 8 10 11 10 2 0 4 -4 4
-10z m-110 -11 c13 -9 12 -10 -3 -5 -11 3 -20 0 -23 -9 -4 -8 -10 -15 -15 -15
-5 0 -4 9 3 20 15 23 18 24 38 9z m-4840 -40 c0 -11 4 -18 9 -15 5 3 16 -5 25
-19 17 -25 11 -35 -17 -31 -18 2 -46 34 -47 51 0 6 8 -1 18 -15 9 -14 25 -26
35 -28 15 -3 16 0 5 17 -6 11 -16 19 -21 18 -6 -1 -13 10 -18 26 -4 16 -4 25
2 21 5 -3 9 -14 9 -25z m2502 8 c-7 -8 -9 -17 -5 -20 11 -11 23 -8 21 6 -2 6
3 12 11 12 8 0 15 -6 17 -13 1 -7 0 -8 -3 -2 -2 5 -9 10 -14 10 -6 0 -8 -4 -4
-9 9 -15 -15 -24 -30 -11 -11 9 -12 16 -2 30 6 11 13 17 16 15 2 -3 -1 -11 -7
-18z m-2458 -16 c-2 -3 -12 3 -22 13 -16 17 -16 18 5 5 12 -7 20 -15 17 -18z
m4776 -8 c-11 -17 -11 -17 -6 0 3 10 6 24 7 30 0 9 2 9 5 0 3 -7 0 -20 -6 -30z
m58 25 c9 -9 12 -9 12 2 0 7 3 11 6 8 11 -12 -16 -46 -33 -44 -10 2 -22 -2
-26 -8 -6 -7 -7 -6 -4 4 2 8 14 14 26 14 12 -1 20 3 18 10 -3 6 -10 10 -16 9
-6 -2 -11 2 -11 7 0 14 13 13 28 -2z m-2294 -13 c-4 -8 -8 -15 -10 -15 -2 0
-4 7 -4 15 0 8 4 15 10 15 5 0 7 -7 4 -15z m-2523 -22 c-12 -20 -14 -14 -5 12
4 9 9 14 11 11 3 -2 0 -13 -6 -23z m2409 20 c-1 -14 -30 -47 -36 -41 -3 4 3
15 13 26 21 23 23 25 23 15z m2327 1 c-3 -3 -12 -4 -19 -1 -8 3 -5 6 6 6 11 1
17 -2 13 -5z m-34 -10 c8 -8 -3 -34 -15 -34 -6 0 -6 6 1 14 9 11 9 15 -1 19
-7 3 -8 6 -2 6 6 1 13 -2 17 -5z m138 -25 c-5 -13 -10 -19 -10 -12 -1 15 10
45 15 40 3 -2 0 -15 -5 -28z m-5001 7 c0 -2 -7 -7 -16 -10 -8 -3 -12 -2 -9 4
6 10 25 14 25 6z m65 -16 c0 -7 -11 -15 -25 -17 -18 -2 -21 -1 -10 6 8 5 18 7
22 5 4 -3 8 -1 8 5 0 5 -5 12 -10 14 -6 3 -5 4 2 3 7 -2 13 -9 13 -16z m2525
16 c0 -2 -7 -7 -16 -10 -8 -3 -12 -2 -9 4 6 10 25 14 25 6z m80 -6 c0 -5 -4
-10 -10 -10 -5 0 -10 5 -10 10 0 6 5 10 10 10 6 0 10 -4 10 -10z m2240 0 c8
-5 11 -10 5 -10 -5 0 -17 5 -25 10 -8 5 -10 10 -5 10 6 0 17 -5 25 -10z
m-2313 -14 c-10 -8 -18 -18 -18 -23 1 -13 -22 -9 -25 5 -1 7 0 8 3 2 2 -5 9
-10 14 -10 6 0 8 4 4 9 -3 6 3 14 12 20 26 15 31 13 10 -3z m2373 5 c0 -17
-21 -24 -33 -12 -9 9 -7 10 7 5 13 -5 17 -4 12 4 -4 7 -2 12 3 12 6 0 11 -4
11 -9z m-2325 -12 c11 -16 1 -19 -13 -3 -7 8 -8 14 -3 14 5 0 13 -5 16 -11z
m2245 1 c0 -5 -4 -10 -10 -10 -5 0 -10 5 -10 10 0 6 5 10 10 10 6 0 10 -4 10
-10z m-2363 -15 c0 -8 -3 -13 -5 -10 -3 3 -11 -3 -19 -13 -11 -15 -12 -13 -2
11 13 30 26 36 26 12z m150 -7 c-3 -8 -6 -5 -6 6 -1 11 2 17 5 13 3 -3 4 -12
1 -19z m-2667 -29 c0 -14 -16 -18 -30 -7 -12 8 -12 9 3 4 20 -6 21 -3 6 27
-10 21 -10 21 5 3 9 -11 16 -23 16 -27z m2613 24 c-5 -12 -3 -14 7 -8 9 5 11
4 6 -4 -4 -6 -12 -9 -17 -6 -12 8 -12 35 1 35 5 0 6 -7 3 -17z m2237 13 c0 -2
-7 -6 -15 -10 -8 -3 -15 -1 -15 4 0 6 7 10 15 10 8 0 15 -2 15 -4z m70 -6 c0
-5 -7 -7 -15 -4 -8 4 -15 8 -15 10 0 2 7 4 15 4 8 0 15 -4 15 -10z m-4969 -23
c-10 -9 -11 -8 -5 6 3 10 9 15 12 12 3 -3 0 -11 -7 -18z m129 3 c0 -5 -4 -10
-10 -10 -5 0 -10 5 -10 10 0 6 5 10 10 10 6 0 10 -4 10 -10z m2485 -19 c-3 -2
-12 2 -22 10 -15 12 -16 12 -10 -3 3 -10 2 -18 -3 -18 -11 0 -14 23 -4 33 3 3
14 1 25 -6 10 -6 16 -13 14 -16z m35 5 c8 -11 10 -17 3 -13 -6 4 -13 1 -16 -5
-2 -7 -4 0 -4 15 0 15 0 27 1 25 1 -2 8 -12 16 -22z m54 -1 c-4 -8 -11 -12
-17 -8 -8 5 -7 8 1 11 7 2 9 9 6 14 -4 7 -2 8 4 4 6 -4 9 -13 6 -21z m2189 -8
c-10 -12 -19 -24 -20 -26 -2 -2 -3 1 -3 7 0 6 7 17 15 25 8 8 11 18 7 22 -4 5
-1 5 6 1 11 -6 10 -12 -5 -29z m63 21 c5 -7 3 -8 -6 -3 -9 5 -10 2 -6 -13 4
-11 2 -23 -3 -27 -7 -4 -8 1 -4 11 5 12 3 15 -6 9 -10 -6 -11 -3 -2 14 13 24
17 25 27 9z m68 3 c3 -4 -6 -6 -21 -3 -15 3 -23 1 -20 -5 3 -5 1 -15 -4 -23
-7 -11 -8 -8 -5 10 3 14 5 26 5 28 2 6 40 1 45 -7z m-4931 -18 c-7 -3 -9 -11
-6 -19 3 -8 1 -14 -4 -14 -5 0 -9 11 -9 24 0 17 4 22 15 18 9 -3 11 -7 4 -9z
m52 -3 c-3 -5 -12 -10 -18 -10 -7 0 -6 4 3 10 19 12 23 12 15 0z m-119 -22 c4
-7 3 -8 -4 -4 -7 4 -12 2 -12 -5 0 -7 -3 -10 -6 -6 -6 5 3 27 11 27 2 0 7 -5
11 -12z m2554 -4 c0 -2 -7 -4 -15 -4 -8 0 -15 4 -15 10 0 5 7 7 15 4 8 -4 15
-8 15 -10z m2320 -3 c-13 -26 -13 -34 2 -25 7 5 8 3 3 -5 -13 -22 -28 4 -16
28 7 12 14 21 17 21 2 0 0 -9 -6 -19z m-4858 -14 c-12 -7 -19 -17 -15 -22 4
-4 2 -5 -6 0 -12 7 -11 10 4 22 11 7 24 13 29 13 6 -1 1 -6 -12 -13z m83 2
c11 -16 1 -19 -13 -3 -7 8 -8 14 -3 14 5 0 13 -5 16 -11z m2505 1 c0 -4 -7 -7
-15 -6 -23 3 -26 12 -5 13 11 1 20 -2 20 -7z m30 0 c0 -5 -2 -10 -4 -10 -3 0
-8 5 -11 10 -3 6 -1 10 4 10 6 0 11 -4 11 -10z m2190 -11 c-7 -11 -14 -18 -17
-15 -3 3 0 12 7 21 18 21 23 19 10 -6z m135 11 c3 -5 1 -10 -4 -10 -6 0 -11 5
-11 10 0 6 2 10 4 10 3 0 8 -4 11 -10z m-5004 -23 c-10 -9 -11 -8 -5 6 3 10 9
15 12 12 3 -3 0 -11 -7 -18z m104 13 c3 -5 1 -10 -4 -10 -6 0 -11 5 -11 10 0
6 2 10 4 10 3 0 8 -4 11 -10z m2478 -5 c-3 -9 -8 -14 -10 -11 -3 3 -2 9 2 15
9 16 15 13 8 -4z m36 -18 c0 -9 -2 -8 -6 1 -2 6 -10 9 -15 6 -7 -4 -8 -2 -4 5
9 13 26 5 25 -12z m91 13 c0 -5 -4 -10 -10 -10 -5 0 -10 5 -10 10 0 6 5 10 10
10 6 0 10 -4 10 -10z m-53 -22 c-3 -8 -6 -5 -6 6 -1 11 2 17 5 13 3 -3 4 -12
1 -19z m2293 12 c-13 -9 -13 -11 0 -20 9 -6 10 -10 3 -10 -6 0 -15 5 -18 10
-8 13 3 30 18 30 7 0 6 -4 -3 -10z m42 3 c-6 -2 -10 -9 -6 -14 3 -5 0 -9 -5
-9 -12 0 -14 13 -4 23 3 4 11 7 17 6 6 0 5 -3 -2 -6z m-4954 -24 c3 -11 2 -11
-7 1 -10 13 -12 13 -21 0 -5 -8 -10 -10 -10 -4 0 27 31 30 38 3z m52 11 c0 -5
-4 -10 -10 -10 -5 0 -10 5 -10 10 0 6 5 10 10 10 6 0 10 -4 10 -10z m45 0 c3
-6 -1 -7 -9 -4 -18 7 -21 14 -7 14 6 0 13 -4 16 -10z m4759 -2 c-3 -4 -9 -8
-15 -8 -5 0 -9 4 -9 8 0 5 7 9 15 9 8 0 12 -4 9 -9z m-2294 -2 c0 -2 -7 -7
-16 -10 -8 -3 -12 -2 -9 4 6 10 25 14 25 6z m-2619 -29 c-10 -9 -11 -8 -5 6 3
10 9 15 12 12 3 -3 0 -11 -7 -18z m84 13 c3 -5 1 -10 -4 -10 -6 0 -11 5 -11
10 0 6 2 10 4 10 3 0 8 -4 11 -10z m4778 -5 c-3 -9 -8 -14 -10 -11 -3 3 -2 9
2 15 9 16 15 13 8 -4z m70 -2 c-5 -12 -3 -14 7 -8 9 6 11 4 5 -4 -5 -9 -11 -9
-17 -3 -6 6 -7 15 -4 21 11 17 16 13 9 -6z m-46 0 c-4 -3 1 -12 11 -20 15 -13
15 -13 -6 -3 -19 9 -23 30 -5 30 4 0 3 -3 0 -7z m-4834 -20 c-5 -12 -3 -14 7
-8 8 5 11 4 6 -3 -4 -6 -13 -9 -22 -5 -11 4 -12 9 -3 19 15 19 20 18 12 -3z
m2492 -1 c-3 -3 -11 0 -18 7 -9 10 -8 11 6 5 10 -3 15 -9 12 -12z m45 8 c0 -5
-4 -10 -10 -10 -5 0 -10 5 -10 10 0 6 5 10 10 10 6 0 10 -4 10 -10z m60 2 c0
-5 -7 -9 -15 -9 -8 0 -12 4 -9 9 3 4 9 8 15 8 5 0 9 -4 9 -8z m-2545 -12 c3
-6 -1 -7 -9 -4 -18 7 -21 14 -7 14 6 0 13 -4 16 -10z m-82 -23 c4 3 7 1 7 -5
0 -17 -16 -15 -34 4 -22 22 -20 31 2 11 10 -10 22 -14 25 -10z m2661 -2 c-8
-21 -30 -25 -30 -5 0 11 5 16 15 12 10 -4 12 -1 6 8 -5 8 -4 11 3 6 6 -4 9
-13 6 -21z m-2547 -10 c-9 -7 -15 -14 -12 -17 3 -2 -2 -5 -10 -5 -10 0 -12 4
-5 12 5 7 7 15 3 19 -4 4 1 4 11 0 15 -6 17 -4 11 6 -6 9 -4 11 5 5 10 -6 10
-11 -3 -20z m2430 19 c-3 -3 -12 -4 -19 -1 -8 3 -5 6 6 6 11 1 17 -2 13 -5z
m67 -10 c3 -8 2 -12 -4 -9 -6 3 -10 10 -10 16 0 14 7 11 14 -7z m2309 -3 c3
-15 1 -18 -11 -14 -11 5 -13 3 -7 -8 5 -8 4 -11 0 -6 -12 10 -15 38 -4 31 5
-3 9 0 9 5 0 18 7 13 13 -8z m-69 1 c3 -5 -1 -9 -9 -9 -8 0 -15 4 -15 9 0 4 4
8 9 8 6 0 12 -4 15 -8z m-2309 -12 c-3 -5 0 -10 7 -11 10 0 10 -2 0 -6 -6 -2
-9 -10 -6 -15 4 -7 2 -8 -5 -4 -6 4 -9 12 -6 17 4 5 0 9 -7 9 -9 0 -9 3 2 10
19 12 23 12 15 0z m2282 -24 c0 -7 -5 -13 -12 -13 -6 0 -11 8 -11 18 0 9 5 15
11 12 7 -2 12 -10 12 -17z m114 -3 c-12 -20 -14 -14 -5 12 4 9 9 14 11 11 3
-2 0 -13 -6 -23z m-2313 -8 c-3 -3 -9 2 -12 12 -6 14 -5 15 5 6 7 -7 10 -15 7
-18z m-2558 5 c0 -5 -2 -10 -4 -10 -3 0 -8 5 -11 10 -3 6 -1 10 4 10 6 0 11
-4 11 -10z m-71 -26 c10 7 9 -20 -2 -29 -4 -3 -5 -2 -2 1 2 4 -4 14 -13 23
-10 9 -12 12 -5 8 6 -5 16 -6 22 -3z m2508 9 c-4 -3 -1 -13 6 -22 11 -14 10
-14 -5 -2 -21 15 -23 31 -6 31 6 0 8 -3 5 -7z m2370 1 c-3 -3 -12 -4 -19 -1
-8 3 -5 6 6 6 11 1 17 -2 13 -5z m-2252 -33 c-6 -5 -25 10 -25 20 0 5 6 4 14
-3 8 -7 12 -15 11 -17z m2220 20 c3 -5 2 -12 -3 -15 -5 -3 -9 1 -9 9 0 17 3
19 12 6z m-4881 -17 c3 -8 2 -12 -4 -9 -6 3 -10 10 -10 16 0 14 7 11 14 -7z
m120 0 c3 -8 2 -12 -4 -9 -6 3 -10 10 -10 16 0 14 7 11 14 -7z m2481 7 c3 -5
2 -12 -3 -15 -5 -3 -9 1 -9 9 0 17 3 19 12 6z m2296 -14 c-10 -9 -11 -8 -5 6
3 10 9 15 12 12 3 -3 0 -11 -7 -18z m43 15 c3 -5 -1 -9 -9 -9 -8 0 -12 4 -9 9
3 4 7 8 9 8 2 0 6 -4 9 -8z m-4973 -25 c-10 -9 -11 -8 -5 6 3 10 9 15 12 12 3
-3 0 -11 -7 -18z m136 -3 c-3 -3 -12 -4 -19 -1 -8 3 -5 6 6 6 11 1 17 -2 13
-5z m2410 -12 c-10 -10 -14 -22 -10 -25 3 -4 1 -7 -5 -7 -7 0 -12 3 -12 7 0 8
31 43 38 43 3 0 -2 -8 -11 -18z m54 1 c13 -16 12 -17 -3 -4 -10 7 -18 15 -18
17 0 8 8 3 21 -13z m2372 -9 c14 -17 14 -21 2 -21 -8 0 -12 4 -9 8 2 4 0 10
-6 14 -5 3 -10 11 -10 17 0 6 1 9 3 7 1 -2 10 -13 20 -25z m-4933 10 c0 -8
-19 -13 -24 -6 -3 5 1 9 9 9 8 0 15 -2 15 -3z m4815 -12 c-3 -3 -11 0 -18 7
-9 10 -8 11 6 5 10 -3 15 -9 12 -12z m31 -10 c-17 -16 -18 -16 -5 5 7 12 15
20 18 17 3 -2 -3 -12 -13 -22z m-2310 9 c-4 -5 0 -11 6 -14 7 -3 3 -4 -9 -4
-17 1 -19 4 -11 14 12 15 22 18 14 4z m49 -11 c-3 -5 -12 -10 -18 -10 -7 0 -6
4 3 10 19 12 23 12 15 0z m40 0 c3 -6 -1 -7 -9 -4 -18 7 -21 14 -7 14 6 0 13
-4 16 -10z m2279 2 c3 -5 -1 -9 -9 -9 -8 0 -12 4 -9 9 3 4 7 8 9 8 2 0 6 -4 9
-8z m-4884 -24 c0 -6 -3 -8 -7 -5 -3 4 -13 1 -22 -6 -14 -11 -14 -10 -2 6 15
20 31 22 31 5z m2451 -5 c13 -16 12 -17 -3 -4 -10 7 -18 15 -18 17 0 8 8 3 21
-13z m106 -8 c0 -8 -10 -23 -21 -32 -21 -18 -21 -18 -2 5 11 12 16 22 12 22
-4 0 -4 5 -1 10 9 14 12 13 12 -5z m-2482 -13 c-3 -3 -11 0 -18 7 -9 10 -8 11
6 5 10 -3 15 -9 12 -12z m2443 -1 c-7 -9 -13 -18 -15 -20 -1 -2 -1 5 0 16 0
11 7 20 14 20 10 0 10 -4 1 -16z m97 1 c-3 -3 -11 0 -18 7 -9 10 -8 11 6 5 10
-3 15 -9 12 -12z m2303 -1 c-7 -9 -13 -18 -15 -20 -1 -2 -1 5 0 16 0 11 7 20
14 20 10 0 10 -4 1 -16z m-4902 -11 c0 -12 -4 -16 -9 -11 -5 5 -6 14 -3 20 10
15 12 14 12 -9z m-63 -5 c4 -8 3 -16 -1 -19 -4 -3 -9 4 -9 15 -2 23 3 25 10 4z
m98 -2 c13 -16 12 -17 -3 -4 -10 7 -18 15 -18 17 0 8 8 3 21 -13z m2427 -7
c16 -20 16 -20 -2 -6 -10 8 -25 15 -33 16 -24 4 -27 13 -4 11 12 -1 30 -10 39
-21z m122 -8 c0 -4 -4 -8 -9 -8 -6 0 -12 4 -15 8 -3 5 1 9 9 9 8 0 15 -4 15
-9z m-2686 -16 c3 -5 -1 -9 -9 -9 -8 0 -12 4 -9 9 3 4 7 8 9 8 2 0 6 -4 9 -8z
m2556 4 c0 -2 -8 -10 -17 -17 -16 -13 -17 -12 -4 4 13 16 21 21 21 13z m64
-12 c3 -8 2 -12 -4 -9 -6 3 -10 10 -10 16 0 14 7 11 14 -7z m-2534 -19 c-5 -7
-8 -14 -5 -17 3 -2 -2 -5 -10 -5 -10 0 -12 4 -5 12 5 7 8 14 5 17 -3 2 2 5 10
5 10 0 12 -4 5 -12z m4756 -10 c1 -8 -2 -15 -6 -15 -5 0 -8 9 -7 20 1 21 10
18 13 -5z m37 7 c15 -16 15 -19 2 -19 -8 0 -13 3 -10 5 3 3 0 11 -6 19 -17 20
-5 16 14 -5z m-4753 -13 c0 -5 -4 -9 -8 -9 -5 0 -9 7 -9 15 0 8 4 12 9 9 4 -3
8 -9 8 -15z m-109 -6 c13 -16 12 -17 -3 -4 -17 13 -22 21 -14 21 2 0 10 -8 17
-17z m2538 3 c8 -10 9 -16 1 -21 -6 -4 -9 -1 -8 7 2 7 -3 12 -10 10 -8 -1 -11
2 -7 8 8 13 10 13 24 -4z m61 8 c0 -8 -19 -13 -24 -6 -3 5 1 9 9 9 8 0 15 -2
15 -3z m25 -11 c-1 -10 3 -25 9 -33 9 -13 9 -13 -6 -2 -13 10 -16 26 -9 50 4
11 9 -2 6 -15z m2324 14 c-2 -1 -13 -9 -24 -17 -19 -14 -19 -14 -6 3 7 9 18
17 24 17 6 0 8 -1 6 -3z m-4904 -36 c3 -5 2 -12 -3 -15 -5 -3 -9 1 -9 9 0 17
3 19 12 6z m4842 -6 c0 -8 -4 -12 -9 -9 -5 3 -6 10 -3 15 9 13 12 11 12 -6z
m-2361 -7 c4 -7 4 -10 -1 -6 -4 4 -15 2 -24 -5 -14 -11 -14 -10 -2 6 16 20 18
21 27 5z m60 -16 c-3 -3 0 -12 6 -21 10 -13 10 -14 -2 -4 -16 15 -23 46 -8 37
5 -3 7 -9 4 -12z m-2598 -27 c-3 -3 -9 2 -12 12 -6 14 -5 15 5 6 7 -7 10 -15
7 -18z m-47 -2 c13 -16 12 -17 -3 -4 -10 7 -18 15 -18 17 0 8 8 3 21 -13z
m2507 -38 c-3 -3 -9 2 -12 12 -6 14 -5 15 5 6 7 -7 10 -15 7 -18z m2415 -30
c-3 -9 -8 -14 -10 -11 -3 3 -2 9 2 15 9 16 15 13 8 -4z m-63 -1 c0 -8 -19 -13
-24 -6 -3 5 1 9 9 9 8 0 15 -2 15 -3z m-4870 -24 c0 -5 -2 -10 -4 -10 -3 0 -8
5 -11 10 -3 6 -1 10 4 10 6 0 11 -4 11 -10z m40 0 c0 -5 -2 -10 -4 -10 -3 0
-8 5 -11 10 -3 6 -1 10 4 10 6 0 11 -4 11 -10z m55 -28 c-3 -3 -11 0 -18 7 -9
10 -8 11 6 5 10 -3 15 -9 12 -12z m4799 2 c3 -8 2 -12 -4 -9 -6 3 -10 10 -10
16 0 14 7 11 14 -7z m-76 -39 c-3 -3 -9 2 -12 12 -6 14 -5 15 5 6 7 -7 10 -15
7 -18z m-4778 -15 c0 -5 -2 -10 -4 -10 -3 0 -8 5 -11 10 -3 6 -1 10 4 10 6 0
11 -4 11 -10z m4880 0 c0 -5 -2 -10 -4 -10 -3 0 -8 5 -11 10 -3 6 -1 10 4 10
6 0 11 -4 11 -10z m-4844 -36 c1 -9 0 -13 -4 -10 -3 4 -7 14 -8 22 -1 9 0 13
4 10 3 -4 7 -14 8 -22z m4804 -24 c0 -5 -2 -10 -4 -10 -3 0 -8 5 -11 10 -3 6
-1 10 4 10 6 0 11 -4 11 -10z"/>
<path d="M6122 7633 c-6 -2 -10 -9 -6 -14 3 -5 -6 -14 -20 -20 -14 -7 -23 -15
-21 -19 2 -4 -2 -15 -9 -25 -10 -14 -15 -15 -21 -5 -6 9 -4 11 5 5 9 -6 11 -4
5 4 -5 9 -11 9 -17 3 -7 -7 -5 -18 5 -32 l15 -22 7 21 c3 12 11 18 17 15 7 -5
8 -2 3 6 -6 9 -4 11 5 5 9 -6 10 -2 5 15 -5 17 -4 21 6 17 15 -5 15 -10 4 -40
-5 -12 -3 -16 7 -12 15 6 18 17 19 67 1 17 6 25 12 21 6 -3 7 -1 3 5 -4 7 -8
12 -9 11 -1 0 -8 -3 -15 -6z m5 -38 c0 -8 -4 -12 -9 -9 -5 3 -6 10 -3 15 9 13
12 11 12 -6z"/>
<path d="M6136 7562 c-3 -2 -2 -10 1 -18 5 -14 -11 -18 -49 -15 -10 1 -19 -1
-19 -6 -9 -58 8 -74 30 -27 10 22 14 24 26 14 9 -7 18 -10 22 -6 3 3 0 6 -7 6
-9 0 -6 8 8 23 12 13 22 26 22 28 0 7 -28 7 -34 1z"/>
<path d="M6021 7516 c-7 -8 -10 -19 -7 -24 3 -6 0 -15 -8 -21 -7 -6 -13 -23
-13 -38 l0 -27 22 28 c13 16 28 25 34 22 6 -4 9 -10 7 -14 -2 -4 2 -12 9 -19
10 -10 16 -9 25 2 6 8 19 12 28 9 9 -3 5 2 -11 11 -15 9 -32 13 -37 10 -6 -3
-10 -3 -11 2 -2 22 -8 43 -16 58 -8 14 -11 15 -22 1z m24 -36 c-3 -5 -16 -15
-28 -21 -19 -9 -19 -8 3 10 28 23 34 26 25 11z"/>
<path d="M5990 7360 c0 -5 7 -10 16 -10 8 0 12 5 9 10 -3 6 -10 10 -16 10 -5
0 -9 -4 -9 -10z"/>
<path d="M3396 7201 c-3 -5 1 -11 9 -15 8 -3 15 -1 15 4 0 13 -18 22 -24 11z"/>
<path d="M3535 7709 c3 -3 -1 -12 -9 -18 -14 -12 -16 -35 -3 -47 19 -19 -3
-28 -28 -12 -22 14 -38 -13 -39 -64 0 -16 -3 -28 -7 -28 -4 0 -6 -8 -4 -17 1
-10 -3 -24 -9 -32 -9 -12 -8 -13 7 -8 9 3 17 2 17 -3 0 -6 -6 -10 -14 -10 -16
0 -27 -35 -18 -58 4 -11 20 -18 40 -19 28 -1 31 1 21 13 -7 9 -16 11 -23 5 -7
-6 -16 -3 -25 6 -12 13 -11 14 6 9 14 -4 20 -2 20 9 0 9 -6 14 -14 11 -8 -4
-11 -1 -8 5 4 6 14 7 24 3 24 -10 84 -11 97 -2 14 10 44 0 44 -15 0 -7 -4 -7
-12 1 -18 18 -33 15 -17 -4 18 -22 19 -53 2 -47 -11 4 -11 8 -1 21 11 13 10
15 -4 9 -11 -4 -15 -2 -12 6 3 8 -11 12 -45 12 -40 1 -48 -2 -39 -12 6 -8 22
-11 39 -8 22 4 31 1 36 -12 7 -17 32 -42 44 -43 6 0 9 17 10 53 0 9 4 17 7 17
4 0 8 8 9 18 2 23 -16 26 -92 19 -45 -5 -65 0 -65 16 0 7 4 7 12 -1 18 -18 33
-15 18 3 -7 9 -19 14 -26 11 -7 -3 -15 1 -17 8 -4 9 2 11 20 8 17 -3 24 -1 19
6 -3 6 -2 13 4 17 5 3 10 10 10 16 0 5 -9 4 -19 -3 -11 -7 -17 -17 -14 -23 4
-5 2 -7 -2 -2 -5 4 -9 18 -10 31 0 20 3 23 16 16 16 -9 29 -4 29 12 0 4 -3 7
-7 7 -20 -3 -33 2 -33 12 0 8 5 8 15 -1 12 -10 16 -9 21 4 3 9 10 13 16 10 5
-3 7 -13 3 -23 -4 -11 -3 -13 5 -5 17 17 24 67 8 58 -10 -6 -11 -5 -1 7 10 12
10 18 1 27 -9 9 -9 12 0 12 7 0 12 -4 12 -10 0 -5 5 -10 11 -10 5 0 8 4 4 9
-3 5 -1 13 5 16 6 4 10 3 9 -2 -1 -4 0 -10 1 -13 7 -18 7 -39 0 -35 -4 3 -14
-3 -21 -12 -12 -15 -12 -16 3 -10 10 3 20 1 24 -5 5 -7 2 -8 -6 -3 -9 5 -11 4
-6 -3 5 -8 2 -10 -8 -6 -9 3 -16 1 -16 -5 0 -6 6 -11 13 -11 6 0 21 -8 32 -16
19 -16 19 -16 -5 -9 -22 7 -23 6 -12 -8 7 -8 12 -19 11 -23 -3 -19 1 -34 11
-34 5 0 7 6 4 13 -3 8 3 23 13 33 10 11 14 14 10 7 -5 -6 -5 -18 -1 -24 4 -8
3 -9 -4 -5 -7 4 -12 2 -12 -3 0 -6 6 -11 13 -11 6 -1 1 -7 -12 -14 -19 -11
-21 -14 -7 -19 9 -4 16 -2 16 4 0 6 4 8 9 5 5 -4 8 2 7 11 -2 10 2 21 8 25 8
5 7 8 -1 8 -7 0 -13 5 -13 11 0 5 4 8 8 5 4 -2 9 4 9 16 1 14 -3 18 -13 14
-22 -8 -59 13 -46 26 6 6 8 17 5 25 -5 12 -1 14 15 8 13 -4 22 -2 22 4 0 6 -3
10 -7 10 -29 -5 -33 2 -16 28 11 16 13 24 5 19 -8 -5 -20 -2 -30 7 -17 14 -55
20 -47 6z m0 -38 c3 -5 2 -12 -3 -15 -5 -3 -9 1 -9 9 0 17 3 19 12 6z"/>
<path d="M8366 7703 c-4 -5 -13 -8 -19 -8 -7 0 -13 -6 -13 -12 -1 -7 -3 -16
-4 -20 -1 -5 -3 -21 -4 -38 0 -16 -5 -35 -9 -42 -5 -7 1 -21 13 -33 13 -13 19
-28 15 -39 -3 -10 1 -24 10 -31 8 -7 15 -9 15 -5 0 4 7 2 15 -5 21 -17 67 -22
62 -7 -3 7 -10 11 -16 9 -6 -1 -24 4 -40 13 -16 8 -31 11 -35 8 -3 -4 -6 -1
-6 6 0 7 7 10 18 7 13 -4 19 -1 19 9 0 9 -6 14 -14 11 -8 -3 -11 -1 -8 4 3 6
0 10 -7 10 -10 0 -10 2 1 9 9 6 10 11 2 15 -6 4 -11 2 -11 -4 0 -6 -5 -8 -11
-4 -8 4 -7 9 2 15 11 7 11 9 -1 9 -10 0 -11 3 -4 8 6 4 10 19 9 34 -1 15 2 25
6 22 4 -2 12 3 17 12 6 11 11 13 16 5 4 -6 2 -11 -3 -11 -6 0 -11 -5 -11 -12
0 -9 3 -9 12 0 19 19 30 14 23 -10 -7 -23 -7 -23 8 -3 8 11 13 24 10 29 -4 5
-1 6 6 2 6 -4 9 -12 6 -17 -4 -5 -1 -9 5 -9 7 0 10 7 6 18 -4 11 1 8 12 -7 11
-13 24 -21 29 -18 6 4 10 -3 9 -16 -1 -12 -7 -21 -14 -19 -18 3 -15 -15 4 -22
21 -8 20 -8 22 7 0 6 3 23 6 37 18 91 18 93 3 87 -8 -3 -20 0 -27 6 -9 9 -17
6 -33 -15 -21 -25 -23 -26 -50 -12 -15 8 -25 19 -22 24 7 12 -8 13 -19 3z
m131 -19 c5 -13 7 -13 14 -2 6 8 8 5 5 -12 -3 -14 -5 -29 -6 -35 0 -5 -5 -2
-11 8 -5 9 -15 17 -22 17 -7 0 -6 -4 3 -10 8 -5 11 -12 7 -16 -13 -14 -36 29
-26 48 12 22 28 23 36 2z m-102 -12 c11 -6 15 -12 8 -12 -6 0 -14 4 -18 10 -3
5 -12 7 -20 4 -8 -4 -13 -9 -10 -13 2 -4 -2 -8 -10 -8 -10 0 -12 4 -5 12 5 7
8 14 5 17 -10 9 30 2 50 -10z"/>
<path d="M8466 7674 c-3 -9 -2 -12 5 -9 5 4 17 1 26 -7 15 -12 15 -11 2 10
-16 26 -25 28 -33 6z"/>
<path d="M3560 7660 c-9 -6 -10 -10 -3 -10 6 0 15 5 18 10 8 12 4 12 -15 0z"/>
<path d="M8385 7630 c-3 -5 -12 -7 -19 -4 -17 7 -15 -38 3 -60 7 -9 10 -16 5
-16 -5 0 -1 -5 8 -10 10 -6 15 -19 13 -30 -3 -18 9 -25 37 -22 16 3 29 -27 19
-45 -6 -11 -11 -13 -11 -5 0 7 -4 11 -9 7 -9 -5 29 -55 41 -55 3 0 4 13 2 30
-2 16 1 32 6 35 6 3 10 12 10 18 0 7 -4 6 -11 -3 -8 -13 -9 -12 -7 4 2 10 -3
21 -11 24 -9 3 -11 0 -6 -8 5 -8 4 -11 -3 -6 -17 10 -4 32 21 33 12 0 16 -1 9
-4 -6 -3 -10 -9 -6 -14 8 -13 21 -11 21 4 0 6 4 19 7 28 5 11 -1 19 -19 27
-25 12 -30 40 -6 35 18 -4 13 11 -8 24 -16 10 -20 8 -30 -13 -13 -30 -14 -37
-2 -30 5 3 14 0 20 -8 9 -11 9 -15 -1 -20 -7 -3 -3 -3 9 -1 12 3 24 2 26 -3 3
-4 -6 -8 -21 -7 -19 0 -26 5 -24 16 1 9 -5 16 -13 16 -11 0 -14 -6 -9 -16 3
-9 8 -23 11 -31 4 -13 4 -13 -6 0 -7 10 -11 11 -11 3 0 -7 -5 -13 -11 -13 -5
0 -7 5 -3 11 3 6 0 15 -7 20 -10 6 -11 9 -1 9 6 0 12 5 12 11 0 5 -4 8 -8 5
-4 -2 -14 -1 -21 3 -11 7 -11 13 -1 27 10 17 11 17 6 1 -5 -14 -2 -16 13 -8
10 6 21 8 23 5 3 -3 8 2 11 10 4 9 1 18 -5 22 -6 4 -8 3 -5 -3 4 -6 0 -13 -8
-17 -16 -6 -29 9 -20 24 3 6 4 10 1 10 -3 0 -7 -4 -11 -10z"/>
<path d="M3534 7575 c-4 -8 -11 -12 -18 -8 -6 4 -6 0 2 -9 10 -12 10 -17 1
-20 -18 -6 -21 -44 -5 -57 11 -9 15 -7 20 6 4 11 1 22 -8 29 -13 9 -12 13 10
23 33 15 39 9 24 -19 -9 -18 -9 -21 1 -18 15 5 22 45 9 53 -6 4 -8 10 -5 15 3
4 -2 11 -10 14 -9 3 -18 -1 -21 -9z"/>
<path d="M3541 7531 c-8 -5 -9 -11 -3 -15 5 -3 12 1 16 9 6 17 6 18 -13 6z"/>
<path d="M3556 7491 c-11 -4 -15 -10 -9 -14 5 -3 19 0 29 8 20 15 11 18 -20 6z"/>
<path d="M8315 7460 c-3 -5 -1 -10 4 -10 6 0 11 5 11 10 0 6 -2 10 -4 10 -3 0
-8 -4 -11 -10z"/>
</g>
</svg>
